<svg width="1440" height="800" viewBox="0 0 1440 800" fill="none" xmlns="http://www.w3.org/2000/svg">
<g clip-path="url(#clip0_22728_10268)">
<g clip-path="url(#clip1_22728_10268)">
<path fill-rule="evenodd" clip-rule="evenodd" d="M617.112 341H804.082C857.793 341 902.618 363.912 930.49 402.63C958.34 441.35 959.199 505.956 942.958 556.498L922.194 621.023C913.522 647.966 872.918 775.384 865 800H763C763 800 764.559 801.366 849.767 536.5C857.29 513.126 861.586 475.185 849.767 458.777C837.968 442.37 818.06 432.66 791.718 432.66H638.886C608.876 432.66 582.283 452.178 572.999 481.005L617.112 341Z" fill="url(#paint0_linear_22728_10268)"/>
<path fill-rule="evenodd" clip-rule="evenodd" d="M471.344 800H371.631C456.498 533.509 542.329 267.331 627.698 1H727.276C726.856 2.33198 726.431 3.6675 725.999 5.00646C587.866 430.03 634.985 286.497 471.344 800Z" fill="#F0145A"/>
</g>
<path d="M449.486 421.676C448.422 421.676 447.371 421.511 446.332 421.182C445.293 420.853 444.445 420.397 443.786 419.814L445.952 415.596C446.408 416.001 446.927 416.318 447.51 416.546C448.118 416.774 448.713 416.888 449.296 416.888C450.132 416.888 450.791 416.685 451.272 416.28C451.779 415.9 452.235 415.254 452.64 414.342L453.704 411.834L454.16 411.188L461.494 393.556H467.194L457.96 415.254C457.301 416.901 456.541 418.193 455.68 419.13C454.844 420.067 453.907 420.726 452.868 421.106C451.855 421.486 450.727 421.676 449.486 421.676ZM452.982 414.798L443.862 393.556H449.98L457.048 410.656L452.982 414.798ZM478.784 414.304C476.606 414.304 474.668 413.848 472.97 412.936C471.298 412.024 469.968 410.783 468.98 409.212C468.018 407.616 467.536 405.805 467.536 403.778C467.536 401.726 468.018 399.915 468.98 398.344C469.968 396.748 471.298 395.507 472.97 394.62C474.668 393.708 476.606 393.252 478.784 393.252C480.938 393.252 482.863 393.708 484.56 394.62C486.258 395.507 487.588 396.735 488.55 398.306C489.513 399.877 489.994 401.701 489.994 403.778C489.994 405.805 489.513 407.616 488.55 409.212C487.588 410.783 486.258 412.024 484.56 412.936C482.863 413.848 480.938 414.304 478.784 414.304ZM478.784 409.44C479.772 409.44 480.659 409.212 481.444 408.756C482.23 408.3 482.85 407.654 483.306 406.818C483.762 405.957 483.99 404.943 483.99 403.778C483.99 402.587 483.762 401.574 483.306 400.738C482.85 399.902 482.23 399.256 481.444 398.8C480.659 398.344 479.772 398.116 478.784 398.116C477.796 398.116 476.91 398.344 476.124 398.8C475.339 399.256 474.706 399.902 474.224 400.738C473.768 401.574 473.54 402.587 473.54 403.778C473.54 404.943 473.768 405.957 474.224 406.818C474.706 407.654 475.339 408.3 476.124 408.756C476.91 409.212 477.796 409.44 478.784 409.44ZM502.583 414.304C500.885 414.304 499.365 413.975 498.023 413.316C496.705 412.657 495.679 411.657 494.945 410.314C494.21 408.946 493.843 407.211 493.843 405.108V393.556H499.771V404.234C499.771 405.931 500.125 407.185 500.835 407.996C501.569 408.781 502.595 409.174 503.913 409.174C504.825 409.174 505.635 408.984 506.345 408.604C507.054 408.199 507.611 407.591 508.017 406.78C508.422 405.944 508.625 404.905 508.625 403.664V393.556H514.553V414H508.929V408.376L509.955 410.01C509.271 411.429 508.257 412.505 506.915 413.24C505.597 413.949 504.153 414.304 502.583 414.304ZM530.806 414V385.804H536.734V414H530.806ZM552.382 414.304C550.051 414.304 547.999 413.848 546.226 412.936C544.478 412.024 543.123 410.783 542.16 409.212C541.197 407.616 540.716 405.805 540.716 403.778C540.716 401.726 541.185 399.915 542.122 398.344C543.085 396.748 544.389 395.507 546.036 394.62C547.683 393.708 549.545 393.252 551.622 393.252C553.623 393.252 555.422 393.683 557.018 394.544C558.639 395.38 559.919 396.596 560.856 398.192C561.793 399.763 562.262 401.65 562.262 403.854C562.262 404.082 562.249 404.348 562.224 404.652C562.199 404.931 562.173 405.197 562.148 405.45H545.542V401.992H559.032L556.752 403.018C556.752 401.954 556.537 401.029 556.106 400.244C555.675 399.459 555.08 398.851 554.32 398.42C553.56 397.964 552.673 397.736 551.66 397.736C550.647 397.736 549.747 397.964 548.962 398.42C548.202 398.851 547.607 399.471 547.176 400.282C546.745 401.067 546.53 402.005 546.53 403.094V404.006C546.53 405.121 546.771 406.109 547.252 406.97C547.759 407.806 548.455 408.452 549.342 408.908C550.254 409.339 551.318 409.554 552.534 409.554C553.623 409.554 554.573 409.389 555.384 409.06C556.22 408.731 556.98 408.237 557.664 407.578L560.818 410.998C559.881 412.062 558.703 412.885 557.284 413.468C555.865 414.025 554.231 414.304 552.382 414.304ZM575.823 421.676C573.897 421.676 572.035 421.435 570.237 420.954C568.463 420.498 566.981 419.801 565.791 418.864L568.147 414.608C569.008 415.317 570.097 415.875 571.415 416.28C572.757 416.711 574.075 416.926 575.367 416.926C577.469 416.926 578.989 416.457 579.927 415.52C580.889 414.583 581.371 413.189 581.371 411.34V408.262L581.751 403.132L581.675 397.964V393.556H587.299V410.58C587.299 414.38 586.311 417.179 584.335 418.978C582.359 420.777 579.521 421.676 575.823 421.676ZM574.911 413.012C573.011 413.012 571.288 412.607 569.743 411.796C568.223 410.96 566.994 409.807 566.057 408.338C565.145 406.843 564.689 405.108 564.689 403.132C564.689 401.131 565.145 399.395 566.057 397.926C566.994 396.431 568.223 395.279 569.743 394.468C571.288 393.657 573.011 393.252 574.911 393.252C576.633 393.252 578.153 393.607 579.471 394.316C580.788 395 581.814 396.077 582.549 397.546C583.283 398.99 583.651 400.852 583.651 403.132C583.651 405.387 583.283 407.249 582.549 408.718C581.814 410.162 580.788 411.239 579.471 411.948C578.153 412.657 576.633 413.012 574.911 413.012ZM576.089 408.148C577.127 408.148 578.052 407.945 578.863 407.54C579.673 407.109 580.307 406.514 580.763 405.754C581.219 404.994 581.447 404.12 581.447 403.132C581.447 402.119 581.219 401.245 580.763 400.51C580.307 399.75 579.673 399.167 578.863 398.762C578.052 398.331 577.127 398.116 576.089 398.116C575.05 398.116 574.125 398.331 573.315 398.762C572.504 399.167 571.858 399.75 571.377 400.51C570.921 401.245 570.693 402.119 570.693 403.132C570.693 404.12 570.921 404.994 571.377 405.754C571.858 406.514 572.504 407.109 573.315 407.54C574.125 407.945 575.05 408.148 576.089 408.148ZM605.356 414V410.01L604.976 409.136V401.992C604.976 400.725 604.583 399.737 603.798 399.028C603.038 398.319 601.86 397.964 600.264 397.964C599.175 397.964 598.098 398.141 597.034 398.496C595.995 398.825 595.109 399.281 594.374 399.864L592.246 395.722C593.361 394.937 594.703 394.329 596.274 393.898C597.845 393.467 599.441 393.252 601.062 393.252C604.178 393.252 606.597 393.987 608.32 395.456C610.043 396.925 610.904 399.218 610.904 402.334V414H605.356ZM599.124 414.304C597.528 414.304 596.16 414.038 595.02 413.506C593.88 412.949 593.006 412.201 592.398 411.264C591.79 410.327 591.486 409.275 591.486 408.11C591.486 406.894 591.777 405.83 592.36 404.918C592.968 404.006 593.918 403.297 595.21 402.79C596.502 402.258 598.187 401.992 600.264 401.992H605.698V405.45H600.91C599.517 405.45 598.554 405.678 598.022 406.134C597.515 406.59 597.262 407.16 597.262 407.844C597.262 408.604 597.553 409.212 598.136 409.668C598.744 410.099 599.567 410.314 600.606 410.314C601.594 410.314 602.481 410.086 603.266 409.63C604.051 409.149 604.621 408.452 604.976 407.54L605.888 410.276C605.457 411.593 604.672 412.594 603.532 413.278C602.392 413.962 600.923 414.304 599.124 414.304ZM616.269 414V385.804H622.197V414H616.269ZM645.339 414.304C643.591 414.304 641.906 414.101 640.285 413.696C638.689 413.265 637.422 412.733 636.485 412.1L638.461 407.844C639.398 408.427 640.5 408.908 641.767 409.288C643.059 409.643 644.325 409.82 645.567 409.82C646.935 409.82 647.897 409.655 648.455 409.326C649.037 408.997 649.329 408.541 649.329 407.958C649.329 407.477 649.101 407.122 648.645 406.894C648.214 406.641 647.631 406.451 646.897 406.324C646.162 406.197 645.351 406.071 644.465 405.944C643.603 405.817 642.729 405.653 641.843 405.45C640.956 405.222 640.145 404.893 639.411 404.462C638.676 404.031 638.081 403.449 637.625 402.714C637.194 401.979 636.979 401.029 636.979 399.864C636.979 398.572 637.346 397.432 638.081 396.444C638.841 395.456 639.93 394.683 641.349 394.126C642.767 393.543 644.465 393.252 646.441 393.252C647.834 393.252 649.253 393.404 650.697 393.708C652.141 394.012 653.344 394.455 654.307 395.038L652.331 399.256C651.343 398.673 650.342 398.281 649.329 398.078C648.341 397.85 647.378 397.736 646.441 397.736C645.123 397.736 644.161 397.913 643.553 398.268C642.945 398.623 642.641 399.079 642.641 399.636C642.641 400.143 642.856 400.523 643.287 400.776C643.743 401.029 644.338 401.232 645.073 401.384C645.807 401.536 646.605 401.675 647.467 401.802C648.353 401.903 649.24 402.068 650.127 402.296C651.013 402.524 651.811 402.853 652.521 403.284C653.255 403.689 653.851 404.259 654.307 404.994C654.763 405.703 654.991 406.641 654.991 407.806C654.991 409.073 654.611 410.2 653.851 411.188C653.091 412.151 651.989 412.911 650.545 413.468C649.126 414.025 647.391 414.304 645.339 414.304ZM668.376 414.304C666.197 414.304 664.259 413.848 662.562 412.936C660.89 412.024 659.56 410.783 658.572 409.212C657.609 407.616 657.128 405.805 657.128 403.778C657.128 401.726 657.609 399.915 658.572 398.344C659.56 396.748 660.89 395.507 662.562 394.62C664.259 393.708 666.197 393.252 668.376 393.252C670.529 393.252 672.455 393.708 674.152 394.62C675.849 395.507 677.179 396.735 678.142 398.306C679.105 399.877 679.586 401.701 679.586 403.778C679.586 405.805 679.105 407.616 678.142 409.212C677.179 410.783 675.849 412.024 674.152 412.936C672.455 413.848 670.529 414.304 668.376 414.304ZM668.376 409.44C669.364 409.44 670.251 409.212 671.036 408.756C671.821 408.3 672.442 407.654 672.898 406.818C673.354 405.957 673.582 404.943 673.582 403.778C673.582 402.587 673.354 401.574 672.898 400.738C672.442 399.902 671.821 399.256 671.036 398.8C670.251 398.344 669.364 398.116 668.376 398.116C667.388 398.116 666.501 398.344 665.716 398.8C664.931 399.256 664.297 399.902 663.816 400.738C663.36 401.574 663.132 402.587 663.132 403.778C663.132 404.943 663.36 405.957 663.816 406.818C664.297 407.654 664.931 408.3 665.716 408.756C666.501 409.212 667.388 409.44 668.376 409.44ZM683.549 414V385.804H689.477V414H683.549ZM703.604 414.304C701.907 414.304 700.387 413.975 699.044 413.316C697.727 412.657 696.701 411.657 695.966 410.314C695.232 408.946 694.864 407.211 694.864 405.108V393.556H700.792V404.234C700.792 405.931 701.147 407.185 701.856 407.996C702.591 408.781 703.617 409.174 704.934 409.174C705.846 409.174 706.657 408.984 707.366 408.604C708.076 408.199 708.633 407.591 709.038 406.78C709.444 405.944 709.646 404.905 709.646 403.664V393.556H715.574V414H709.95V408.376L710.976 410.01C710.292 411.429 709.279 412.505 707.936 413.24C706.619 413.949 705.175 414.304 703.604 414.304ZM729.426 414.304C727.019 414.304 725.145 413.696 723.802 412.48C722.459 411.239 721.788 409.402 721.788 406.97V389.034H727.716V406.894C727.716 407.755 727.944 408.427 728.4 408.908C728.856 409.364 729.477 409.592 730.262 409.592C731.199 409.592 731.997 409.339 732.656 408.832L734.252 413.012C733.644 413.443 732.909 413.772 732.048 414C731.212 414.203 730.338 414.304 729.426 414.304ZM718.634 398.572V394.012H732.808V398.572H718.634ZM737.58 414V393.556H743.508V414H737.58ZM740.544 390.706C739.454 390.706 738.568 390.389 737.884 389.756C737.2 389.123 736.858 388.337 736.858 387.4C736.858 386.463 737.2 385.677 737.884 385.044C738.568 384.411 739.454 384.094 740.544 384.094C741.633 384.094 742.52 384.398 743.204 385.006C743.888 385.589 744.23 386.349 744.23 387.286C744.23 388.274 743.888 389.097 743.204 389.756C742.545 390.389 741.658 390.706 740.544 390.706ZM758.737 414.304C756.559 414.304 754.621 413.848 752.923 412.936C751.251 412.024 749.921 410.783 748.933 409.212C747.971 407.616 747.489 405.805 747.489 403.778C747.489 401.726 747.971 399.915 748.933 398.344C749.921 396.748 751.251 395.507 752.923 394.62C754.621 393.708 756.559 393.252 758.737 393.252C760.891 393.252 762.816 393.708 764.513 394.62C766.211 395.507 767.541 396.735 768.503 398.306C769.466 399.877 769.947 401.701 769.947 403.778C769.947 405.805 769.466 407.616 768.503 409.212C767.541 410.783 766.211 412.024 764.513 412.936C762.816 413.848 760.891 414.304 758.737 414.304ZM758.737 409.44C759.725 409.44 760.612 409.212 761.397 408.756C762.183 408.3 762.803 407.654 763.259 406.818C763.715 405.957 763.943 404.943 763.943 403.778C763.943 402.587 763.715 401.574 763.259 400.738C762.803 399.902 762.183 399.256 761.397 398.8C760.612 398.344 759.725 398.116 758.737 398.116C757.749 398.116 756.863 398.344 756.077 398.8C755.292 399.256 754.659 399.902 754.177 400.738C753.721 401.574 753.493 402.587 753.493 403.778C753.493 404.943 753.721 405.957 754.177 406.818C754.659 407.654 755.292 408.3 756.077 408.756C756.863 409.212 757.749 409.44 758.737 409.44ZM786.336 393.252C787.957 393.252 789.401 393.581 790.668 394.24C791.96 394.873 792.973 395.861 793.708 397.204C794.442 398.521 794.81 400.219 794.81 402.296V414H788.882V403.208C788.882 401.561 788.514 400.345 787.78 399.56C787.07 398.775 786.057 398.382 784.74 398.382C783.802 398.382 782.954 398.585 782.194 398.99C781.459 399.37 780.876 399.965 780.446 400.776C780.04 401.587 779.838 402.625 779.838 403.892V414H773.91V393.556H779.572V399.218L778.508 397.508C779.242 396.14 780.294 395.089 781.662 394.354C783.03 393.619 784.588 393.252 786.336 393.252ZM807.061 414.304C805.313 414.304 803.629 414.101 802.007 413.696C800.411 413.265 799.145 412.733 798.207 412.1L800.183 407.844C801.121 408.427 802.223 408.908 803.489 409.288C804.781 409.643 806.048 409.82 807.289 409.82C808.657 409.82 809.62 409.655 810.177 409.326C810.76 408.997 811.051 408.541 811.051 407.958C811.051 407.477 810.823 407.122 810.367 406.894C809.937 406.641 809.354 406.451 808.619 406.324C807.885 406.197 807.074 406.071 806.187 405.944C805.326 405.817 804.452 405.653 803.565 405.45C802.679 405.222 801.868 404.893 801.133 404.462C800.399 404.031 799.803 403.449 799.347 402.714C798.917 401.979 798.701 401.029 798.701 399.864C798.701 398.572 799.069 397.432 799.803 396.444C800.563 395.456 801.653 394.683 803.071 394.126C804.49 393.543 806.187 393.252 808.163 393.252C809.557 393.252 810.975 393.404 812.419 393.708C813.863 394.012 815.067 394.455 816.029 395.038L814.053 399.256C813.065 398.673 812.065 398.281 811.051 398.078C810.063 397.85 809.101 397.736 808.163 397.736C806.846 397.736 805.883 397.913 805.275 398.268C804.667 398.623 804.363 399.079 804.363 399.636C804.363 400.143 804.579 400.523 805.009 400.776C805.465 401.029 806.061 401.232 806.795 401.384C807.53 401.536 808.328 401.675 809.189 401.802C810.076 401.903 810.963 402.068 811.849 402.296C812.736 402.524 813.534 402.853 814.243 403.284C814.978 403.689 815.573 404.259 816.029 404.994C816.485 405.703 816.713 406.641 816.713 407.806C816.713 409.073 816.333 410.2 815.573 411.188C814.813 412.151 813.711 412.911 812.267 413.468C810.849 414.025 809.113 414.304 807.061 414.304ZM843.216 414.304C841.494 414.304 839.986 413.924 838.694 413.164C837.402 412.404 836.389 411.251 835.654 409.706C834.945 408.135 834.59 406.159 834.59 403.778C834.59 401.371 834.932 399.395 835.616 397.85C836.3 396.305 837.288 395.152 838.58 394.392C839.872 393.632 841.418 393.252 843.216 393.252C845.142 393.252 846.864 393.695 848.384 394.582C849.93 395.443 851.146 396.659 852.032 398.23C852.944 399.801 853.4 401.65 853.4 403.778C853.4 405.931 852.944 407.793 852.032 409.364C851.146 410.935 849.93 412.151 848.384 413.012C846.864 413.873 845.142 414.304 843.216 414.304ZM831.132 421.372V393.556H836.794V397.736L836.68 403.816L837.06 409.858V421.372H831.132ZM842.19 409.44C843.178 409.44 844.052 409.212 844.812 408.756C845.598 408.3 846.218 407.654 846.674 406.818C847.156 405.957 847.396 404.943 847.396 403.778C847.396 402.587 847.156 401.574 846.674 400.738C846.218 399.902 845.598 399.256 844.812 398.8C844.052 398.344 843.178 398.116 842.19 398.116C841.202 398.116 840.316 398.344 839.53 398.8C838.745 399.256 838.124 399.902 837.668 400.738C837.212 401.574 836.984 402.587 836.984 403.778C836.984 404.943 837.212 405.957 837.668 406.818C838.124 407.654 838.745 408.3 839.53 408.756C840.316 409.212 841.202 409.44 842.19 409.44ZM857.369 414V393.556H863.031V399.332L862.233 397.66C862.841 396.216 863.816 395.127 865.159 394.392C866.501 393.632 868.135 393.252 870.061 393.252V398.724C869.807 398.699 869.579 398.686 869.377 398.686C869.174 398.661 868.959 398.648 868.731 398.648C867.109 398.648 865.792 399.117 864.779 400.054C863.791 400.966 863.297 402.397 863.297 404.348V414H857.369ZM883.165 414.304C880.987 414.304 879.049 413.848 877.351 412.936C875.679 412.024 874.349 410.783 873.361 409.212C872.399 407.616 871.917 405.805 871.917 403.778C871.917 401.726 872.399 399.915 873.361 398.344C874.349 396.748 875.679 395.507 877.351 394.62C879.049 393.708 880.987 393.252 883.165 393.252C885.319 393.252 887.244 393.708 888.941 394.62C890.639 395.507 891.969 396.735 892.931 398.306C893.894 399.877 894.375 401.701 894.375 403.778C894.375 405.805 893.894 407.616 892.931 409.212C891.969 410.783 890.639 412.024 888.941 412.936C887.244 413.848 885.319 414.304 883.165 414.304ZM883.165 409.44C884.153 409.44 885.04 409.212 885.825 408.756C886.611 408.3 887.231 407.654 887.687 406.818C888.143 405.957 888.371 404.943 888.371 403.778C888.371 402.587 888.143 401.574 887.687 400.738C887.231 399.902 886.611 399.256 885.825 398.8C885.04 398.344 884.153 398.116 883.165 398.116C882.177 398.116 881.291 398.344 880.505 398.8C879.72 399.256 879.087 399.902 878.605 400.738C878.149 401.574 877.921 402.587 877.921 403.778C877.921 404.943 878.149 405.957 878.605 406.818C879.087 407.654 879.72 408.3 880.505 408.756C881.291 409.212 882.177 409.44 883.165 409.44ZM903.329 414L894.741 393.556H900.859L908.003 411.15H904.963L912.373 393.556H918.073L909.447 414H903.329ZM920.492 414V393.556H926.42V414H920.492ZM923.456 390.706C922.367 390.706 921.48 390.389 920.796 389.756C920.112 389.123 919.77 388.337 919.77 387.4C919.77 386.463 920.112 385.677 920.796 385.044C921.48 384.411 922.367 384.094 923.456 384.094C924.545 384.094 925.432 384.398 926.116 385.006C926.8 385.589 927.142 386.349 927.142 387.286C927.142 388.274 926.8 389.097 926.116 389.756C925.457 390.389 924.571 390.706 923.456 390.706ZM940.7 414.304C938.774 414.304 937.039 413.873 935.494 413.012C933.948 412.125 932.72 410.897 931.808 409.326C930.921 407.755 930.478 405.906 930.478 403.778C930.478 401.625 930.921 399.763 931.808 398.192C932.72 396.621 933.948 395.405 935.494 394.544C937.039 393.683 938.774 393.252 940.7 393.252C942.422 393.252 943.93 393.632 945.222 394.392C946.514 395.152 947.514 396.305 948.224 397.85C948.933 399.395 949.288 401.371 949.288 403.778C949.288 406.159 948.946 408.135 948.262 409.706C947.578 411.251 946.59 412.404 945.298 413.164C944.031 413.924 942.498 414.304 940.7 414.304ZM941.726 409.44C942.688 409.44 943.562 409.212 944.348 408.756C945.133 408.3 945.754 407.654 946.21 406.818C946.691 405.957 946.932 404.943 946.932 403.778C946.932 402.587 946.691 401.574 946.21 400.738C945.754 399.902 945.133 399.256 944.348 398.8C943.562 398.344 942.688 398.116 941.726 398.116C940.738 398.116 939.851 398.344 939.066 398.8C938.28 399.256 937.647 399.902 937.166 400.738C936.71 401.574 936.482 402.587 936.482 403.778C936.482 404.943 936.71 405.957 937.166 406.818C937.647 407.654 938.28 408.3 939.066 408.756C939.851 409.212 940.738 409.44 941.726 409.44ZM947.084 414V409.82L947.198 403.74L946.818 397.698V385.804H952.746V414H947.084ZM968.378 414.304C966.047 414.304 963.995 413.848 962.222 412.936C960.474 412.024 959.119 410.783 958.156 409.212C957.193 407.616 956.712 405.805 956.712 403.778C956.712 401.726 957.181 399.915 958.118 398.344C959.081 396.748 960.385 395.507 962.032 394.62C963.679 393.708 965.541 393.252 967.618 393.252C969.619 393.252 971.418 393.683 973.014 394.544C974.635 395.38 975.915 396.596 976.852 398.192C977.789 399.763 978.258 401.65 978.258 403.854C978.258 404.082 978.245 404.348 978.22 404.652C978.195 404.931 978.169 405.197 978.144 405.45H961.538V401.992H975.028L972.748 403.018C972.748 401.954 972.533 401.029 972.102 400.244C971.671 399.459 971.076 398.851 970.316 398.42C969.556 397.964 968.669 397.736 967.656 397.736C966.643 397.736 965.743 397.964 964.958 398.42C964.198 398.851 963.603 399.471 963.172 400.282C962.741 401.067 962.526 402.005 962.526 403.094V404.006C962.526 405.121 962.767 406.109 963.248 406.97C963.755 407.806 964.451 408.452 965.338 408.908C966.25 409.339 967.314 409.554 968.53 409.554C969.619 409.554 970.569 409.389 971.38 409.06C972.216 408.731 972.976 408.237 973.66 407.578L976.814 410.998C975.877 412.062 974.699 412.885 973.28 413.468C971.861 414.025 970.227 414.304 968.378 414.304ZM982.205 414V393.556H987.867V399.332L987.069 397.66C987.677 396.216 988.652 395.127 989.995 394.392C991.337 393.632 992.971 393.252 994.897 393.252V398.724C994.643 398.699 994.415 398.686 994.213 398.686C994.01 398.661 993.795 398.648 993.567 398.648C991.945 398.648 990.628 399.117 989.615 400.054C988.627 400.966 988.133 402.397 988.133 404.348V414H982.205Z" fill="white"/>
<g clip-path="url(#clip2_22728_10268)">
<circle opacity="0.5" cx="720" cy="749" r="20" stroke="white" stroke-width="2"/>
<path d="M711 746L720 755L729 746" stroke="white" stroke-width="2"/>
</g>
<g clip-path="url(#clip3_22728_10268)">
<path d="M64.9567 50H60V85.7986H64.9567V72.5177C64.9567 70.2709 65.5156 68.4984 66.6333 67.2502C67.7509 66.002 69.2817 65.353 71.1769 65.353C72.8049 65.353 74.1655 65.9521 75.2589 67.1004C76.3523 68.2738 76.9112 69.7466 76.9112 71.5191V85.8236H81.8922V71.5191C81.8922 68.2238 80.9932 65.6276 79.1951 63.6804C77.3971 61.7332 75.0402 60.7596 72.1731 60.7596C71.347 60.7596 70.5209 60.8594 69.7191 61.0841C68.8929 61.3088 68.2369 61.5584 67.7024 61.833C67.1678 62.1076 66.6576 62.4072 66.1959 62.7567C65.7342 63.1062 65.4184 63.3558 65.2726 63.5056C65.1268 63.6554 65.0053 63.7552 64.9567 63.8301V50Z" fill="#F0145A"/>
<path d="M92.9726 50H87.8628V85.7689H92.9726V50Z" fill="white"/>
<path d="M123.111 75.2935L123.367 72.7386C123.367 69.315 122.243 66.4535 119.943 64.1541C117.644 61.8546 114.782 60.7305 111.359 60.7305C107.935 60.7305 104.972 61.9568 102.519 64.4096C100.066 66.8623 98.8397 69.7749 98.8397 73.2496C98.8397 76.8265 100.117 79.8924 102.621 82.4473C105.125 85.0022 108.14 86.2797 111.614 86.2797C112.943 86.2797 114.169 86.0753 115.396 85.7176C116.622 85.3088 117.644 84.9 118.359 84.4912C119.126 84.0313 119.892 83.5204 120.557 82.9583C121.221 82.3962 121.681 81.9874 121.885 81.7319C122.089 81.4764 122.243 81.3231 122.345 81.1698L119.024 77.8484L118.257 78.8193C117.746 79.4325 116.877 80.0457 115.651 80.7099C114.374 81.3742 113.045 81.6808 111.614 81.6808C109.621 81.6808 107.935 81.0676 106.504 79.7902C105.074 78.5127 104.205 77.0309 103.95 75.2935H123.111ZM111.359 65.0738C113.249 65.0738 114.782 65.6359 116.06 66.709C117.286 67.8331 118.053 69.2128 118.359 70.9501H104.154C104.614 69.2128 105.431 67.8331 106.709 66.709C107.935 65.6359 109.519 65.0738 111.359 65.0738Z" fill="white"/>
<path d="M146.943 84.2868C146.943 86.5351 146.279 88.3747 144.899 89.8054C143.57 91.1851 141.884 91.9005 139.789 91.9005C138.869 91.9005 137.95 91.7472 137.081 91.4917C136.212 91.2362 135.548 90.9296 134.986 90.5719C134.424 90.2142 133.913 89.8565 133.402 89.3967C132.942 88.9368 132.635 88.6302 132.482 88.4769C132.329 88.3236 132.227 88.1703 132.124 88.0681L128.803 91.3895L129.212 91.9005C129.467 92.2582 129.927 92.718 130.54 93.229C131.153 93.6889 131.869 94.1999 132.686 94.7109C133.504 95.1708 134.526 95.5796 135.803 95.9372C137.081 96.2949 138.409 96.4993 139.789 96.4993C143.264 96.4993 146.125 95.3241 148.527 92.9735C150.877 90.5719 152.053 87.7104 152.053 84.2357V61.2415H146.943V63.7964L146.074 63.0299C145.512 62.5189 144.643 62.0079 143.417 61.4969C142.191 60.986 140.862 60.7305 139.534 60.7305C136.417 60.7305 133.76 61.9057 131.46 64.3074C129.161 66.709 128.036 69.5705 128.036 72.9941C128.036 76.4177 129.161 79.2792 131.46 81.6808C133.76 84.0824 136.417 85.2577 139.534 85.2577C140.402 85.2577 141.22 85.1555 142.089 84.9511C142.906 84.6956 143.57 84.4401 144.132 84.1846C144.695 83.9291 145.206 83.6225 145.665 83.2648C146.125 82.9072 146.483 82.6517 146.585 82.5495L146.943 82.1918V84.2868ZM133.146 72.9941C133.146 70.8479 133.811 69.0595 135.19 67.5776C136.57 66.0958 138.205 65.3293 140.045 65.3293C141.884 65.3293 143.519 66.0958 144.899 67.5776C146.227 69.0595 146.943 70.8479 146.943 72.9941C146.943 75.1402 146.227 76.9287 144.899 78.4105C143.519 79.8924 141.884 80.6588 140.045 80.6588C138.205 80.6588 136.57 79.8924 135.19 78.4105C133.811 76.9287 133.146 75.1402 133.146 72.9941Z" fill="white"/>
<path d="M178.724 85.7687V69.9282C178.724 67.3222 177.753 65.1249 175.863 63.3876C173.972 61.5991 171.519 60.7305 168.504 60.7305C167.329 60.7305 166.154 60.8838 165.03 61.1904C163.906 61.548 162.986 61.9057 162.321 62.3145C161.657 62.7233 160.993 63.1832 160.38 63.7453C159.767 64.2563 159.409 64.6139 159.204 64.8183C159.051 65.0227 158.898 65.176 158.796 65.3293L162.117 68.6507L162.781 67.782C163.19 67.22 163.906 66.709 164.979 66.1469C166.052 65.5848 167.227 65.3293 168.504 65.3293C169.986 65.3293 171.213 65.7892 172.183 66.6579C173.154 67.5266 173.614 68.6507 173.614 69.9282L164.672 71.4611C162.475 71.8188 160.686 72.6875 159.46 74.0672C158.183 75.4468 157.518 77.1331 157.518 79.1259C157.518 81.0165 158.336 82.6517 159.971 84.0824C161.657 85.5643 163.701 86.2797 166.205 86.2797C167.074 86.2797 167.891 86.1775 168.709 85.922C169.577 85.7176 170.242 85.4621 170.804 85.2066C171.366 84.9511 171.877 84.6445 172.337 84.2868C172.797 83.9291 173.103 83.6736 173.308 83.5715C173.461 83.4182 173.563 83.2649 173.614 83.2138V85.7687H178.724ZM166.971 81.6808C165.643 81.6808 164.57 81.3742 163.803 80.761C162.986 80.1479 162.628 79.4325 162.628 78.6149C162.628 77.7462 162.884 76.9798 163.446 76.4177C164.008 75.8556 164.774 75.4468 165.694 75.2935L173.614 74.0161V74.527C173.614 76.8265 173.052 78.5638 171.877 79.8413C170.702 81.0676 169.066 81.6808 166.971 81.6808Z" fill="white"/>
<path d="M190 50H184.89V85.7689H190V50Z" fill="white"/>
<path d="M60 103.118H61.5991V108.725H65.064V110.028H60V103.118Z" fill="white"/>
<path d="M75.5016 108.548H72.2934L71.6814 110.028H70.0428L73.1226 103.118H74.702L77.7917 110.028H76.1136L75.5016 108.548ZM74.9982 107.333L73.9025 104.688L72.8067 107.333H74.9982Z" fill="white"/>
<path d="M93.5121 103.118L91.2516 110.028H89.534L88.0138 105.349L86.4443 110.028H84.7366L82.4662 103.118H84.1245L85.6842 107.975L87.313 103.118H88.7937L90.3731 108.015L91.9821 103.118H93.5121Z" fill="white"/>
<path d="M110.523 110.147C109.819 110.147 109.181 109.995 108.608 109.693C108.042 109.383 107.595 108.959 107.266 108.419C106.943 107.873 106.782 107.258 106.782 106.573C106.782 105.889 106.943 105.277 107.266 104.737C107.595 104.191 108.042 103.767 108.608 103.464C109.181 103.155 109.822 103 110.533 103C111.132 103 111.672 103.105 112.152 103.316C112.639 103.526 113.047 103.829 113.376 104.224L112.349 105.172C111.882 104.632 111.303 104.362 110.612 104.362C110.184 104.362 109.803 104.458 109.467 104.649C109.131 104.833 108.868 105.093 108.677 105.428C108.493 105.764 108.401 106.146 108.401 106.573C108.401 107.001 108.493 107.383 108.677 107.718C108.868 108.054 109.131 108.317 109.467 108.508C109.803 108.692 110.184 108.785 110.612 108.785C111.303 108.785 111.882 108.511 112.349 107.965L113.376 108.913C113.047 109.314 112.639 109.62 112.152 109.831C111.665 110.042 111.122 110.147 110.523 110.147Z" fill="white"/>
<path d="M122.593 110.147C121.876 110.147 121.228 109.992 120.649 109.683C120.076 109.374 119.625 108.949 119.296 108.409C118.974 107.863 118.813 107.251 118.813 106.573C118.813 105.896 118.974 105.287 119.296 104.747C119.625 104.201 120.076 103.773 120.649 103.464C121.228 103.155 121.876 103 122.593 103C123.311 103 123.956 103.155 124.528 103.464C125.101 103.773 125.551 104.201 125.88 104.747C126.209 105.287 126.374 105.896 126.374 106.573C126.374 107.251 126.209 107.863 125.88 108.409C125.551 108.949 125.101 109.374 124.528 109.683C123.956 109.992 123.311 110.147 122.593 110.147ZM122.593 108.785C123.001 108.785 123.37 108.692 123.699 108.508C124.028 108.317 124.285 108.054 124.469 107.718C124.66 107.383 124.755 107.001 124.755 106.573C124.755 106.146 124.66 105.764 124.469 105.428C124.285 105.093 124.028 104.833 123.699 104.649C123.37 104.458 123.001 104.362 122.593 104.362C122.185 104.362 121.817 104.458 121.488 104.649C121.159 104.833 120.899 105.093 120.708 105.428C120.524 105.764 120.431 106.146 120.431 106.573C120.431 107.001 120.524 107.383 120.708 107.718C120.899 108.054 121.159 108.317 121.488 108.508C121.817 108.692 122.185 108.785 122.593 108.785Z" fill="white"/>
<path d="M138.799 110.028L138.79 105.882L136.756 109.298H136.036L134.012 105.971V110.028H132.511V103.118H133.834L136.42 107.412L138.967 103.118H140.28L140.3 110.028H138.799Z" fill="white"/>
<path d="M149.866 103.118C150.478 103.118 151.008 103.22 151.455 103.424C151.909 103.628 152.258 103.918 152.502 104.293C152.745 104.668 152.867 105.112 152.867 105.626C152.867 106.132 152.745 106.577 152.502 106.958C152.258 107.333 151.909 107.623 151.455 107.827C151.008 108.024 150.478 108.123 149.866 108.123H148.474V110.028H146.875V103.118H149.866ZM149.777 106.82C150.257 106.82 150.623 106.718 150.873 106.514C151.123 106.304 151.248 106.007 151.248 105.626C151.248 105.237 151.123 104.941 150.873 104.737C150.623 104.527 150.257 104.421 149.777 104.421H148.474V106.82H149.777Z" fill="white"/>
<path d="M163.148 108.548H159.94L159.328 110.028H157.689L160.769 103.118H162.348L165.438 110.028H163.76L163.148 108.548ZM162.644 107.333L161.549 104.688L160.453 107.333H162.644Z" fill="white"/>
<path d="M177.428 103.118V110.028H176.115L172.67 105.833V110.028H171.09V103.118H172.413L175.848 107.314V103.118H177.428Z" fill="white"/>
<path d="M187.315 107.58V110.028H185.716V107.561L183.041 103.118H184.739L186.585 106.188L188.43 103.118H190L187.315 107.58Z" fill="white"/>
</g>
<g clip-path="url(#clip4_22728_10268)">
<path d="M910.666 65.416C911.13 65.552 911.518 65.592 911.83 65.536C912.15 65.472 912.434 65.248 912.682 64.864L913.09 64.252L913.27 64.048L916.054 58.6H917.962L914.386 65.248C914.066 65.848 913.686 66.308 913.246 66.628C912.814 66.948 912.338 67.128 911.818 67.168C911.298 67.216 910.758 67.124 910.198 66.892L910.666 65.416ZM913.234 65.668L909.442 58.6H911.518L914.302 64.24L913.234 65.668ZM925.322 67L922.706 62.956L924.278 62.008L927.53 67H925.322ZM919.862 67V58.6H921.794V67H919.862ZM921.23 63.616V61.996H924.158V63.616H921.23ZM924.458 63.016L922.67 62.8L925.394 58.6H927.446L924.458 63.016Z" fill="white"/>
<path d="M943.513 67V58.6H947.149C947.901 58.6 948.549 58.724 949.093 58.972C949.637 59.212 950.057 59.56 950.353 60.016C950.649 60.472 950.797 61.016 950.797 61.648C950.797 62.272 950.649 62.812 950.353 63.268C950.057 63.724 949.637 64.076 949.093 64.324C948.549 64.564 947.901 64.684 947.149 64.684H944.593L945.457 63.808V67H943.513ZM945.457 64.024L944.593 63.1H947.041C947.641 63.1 948.089 62.972 948.385 62.716C948.681 62.46 948.829 62.104 948.829 61.648C948.829 61.184 948.681 60.824 948.385 60.568C948.089 60.312 947.641 60.184 947.041 60.184H944.593L945.457 59.26V64.024ZM953.18 65.416C953.644 65.552 954.032 65.592 954.344 65.536C954.664 65.472 954.948 65.248 955.196 64.864L955.604 64.252L955.784 64.048L958.568 58.6H960.476L956.9 65.248C956.58 65.848 956.2 66.308 955.76 66.628C955.328 66.948 954.852 67.128 954.332 67.168C953.812 67.216 953.272 67.124 952.712 66.892L953.18 65.416ZM955.748 65.668L951.956 58.6H954.032L956.816 64.24L955.748 65.668Z" fill="white"/>
<rect x="968" y="50" width="33" height="25" rx="8" fill="#F0145A"/>
<path d="M977.913 61.984H981.957V63.496H977.913V61.984ZM978.057 65.44H982.629V67H976.125V58.6H982.473V60.16H978.057V65.44ZM985.176 67V58.6H986.784L991.74 64.648H990.96V58.6H992.88V67H991.284L986.316 60.952H987.096V67H985.176Z" fill="white"/>
<circle cx="1010" cy="62.5" r="3" fill="#E6E6F0"/>
<path d="M1021.91 65.716L1021.86 64.276L1028.65 57.3H1030.01L1025.06 62.484L1024.39 63.204L1021.91 65.716ZM1020.89 68.5V57.3H1022.07V68.5H1020.89ZM1028.93 68.5L1024.1 62.932L1024.9 62.068L1030.34 68.5H1028.93ZM1031.51 71.684C1031.11 71.684 1030.73 71.62 1030.37 71.492C1030.02 71.364 1029.72 71.172 1029.46 70.916L1029.99 70.068C1030.2 70.2707 1030.43 70.4253 1030.68 70.532C1030.93 70.6493 1031.21 70.708 1031.52 70.708C1031.9 70.708 1032.22 70.6013 1032.48 70.388C1032.76 70.1853 1033.02 69.8227 1033.27 69.3L1033.81 68.068L1033.94 67.892L1037.4 60.1H1038.52L1034.31 69.508C1034.07 70.052 1033.81 70.484 1033.52 70.804C1033.25 71.124 1032.94 71.348 1032.61 71.476C1032.28 71.6147 1031.91 71.684 1031.51 71.684ZM1033.75 68.74L1029.88 60.1H1031.06L1034.48 67.812L1033.75 68.74ZM1040.12 68.5V60.1H1041.25V68.5H1040.12ZM1040.69 58.244C1040.46 58.244 1040.26 58.164 1040.1 58.004C1039.94 57.844 1039.86 57.652 1039.86 57.428C1039.86 57.204 1039.94 57.0173 1040.1 56.868C1040.26 56.708 1040.46 56.628 1040.69 56.628C1040.93 56.628 1041.12 56.7027 1041.28 56.852C1041.44 57.0013 1041.52 57.188 1041.52 57.412C1041.52 57.6467 1041.44 57.844 1041.28 58.004C1041.13 58.164 1040.94 58.244 1040.69 58.244ZM1046.57 68.5L1042.84 60.1H1044.03L1047.45 67.892H1046.89L1050.36 60.1H1051.48L1047.74 68.5H1046.57ZM1051.85 70.836L1052.55 67.876L1052.68 68.564C1052.44 68.564 1052.23 68.484 1052.06 68.324C1051.9 68.164 1051.82 67.956 1051.82 67.7C1051.82 67.444 1051.9 67.236 1052.06 67.076C1052.23 66.916 1052.43 66.836 1052.67 66.836C1052.91 66.836 1053.11 66.9213 1053.26 67.092C1053.42 67.2627 1053.5 67.4653 1053.5 67.7C1053.5 67.7853 1053.49 67.8707 1053.48 67.956C1053.47 68.0413 1053.45 68.1373 1053.42 68.244C1053.39 68.3507 1053.34 68.4787 1053.29 68.628L1052.62 70.836H1051.85ZM1060.36 68.5V57.3H1061.33L1066.45 66.036H1065.94L1071.01 57.3H1071.99V68.5H1070.85V59.076H1071.12L1066.45 67.076H1065.89L1061.19 59.076H1061.49V68.5H1060.36ZM1078.96 68.58C1078.09 68.58 1077.32 68.3987 1076.66 68.036C1076 67.6627 1075.48 67.156 1075.11 66.516C1074.74 65.8653 1074.55 65.124 1074.55 64.292C1074.55 63.46 1074.72 62.724 1075.08 62.084C1075.44 61.444 1075.93 60.9427 1076.55 60.58C1077.18 60.2067 1077.88 60.02 1078.66 60.02C1079.45 60.02 1080.15 60.2013 1080.76 60.564C1081.38 60.916 1081.86 61.4173 1082.21 62.068C1082.56 62.708 1082.74 63.4493 1082.74 64.292C1082.74 64.3453 1082.74 64.404 1082.72 64.468C1082.72 64.5213 1082.72 64.58 1082.72 64.644H1075.41V63.796H1082.12L1081.67 64.132C1081.67 63.524 1081.54 62.9853 1081.27 62.516C1081.01 62.036 1080.66 61.6627 1080.21 61.396C1079.76 61.1293 1079.25 60.996 1078.66 60.996C1078.08 60.996 1077.57 61.1293 1077.11 61.396C1076.65 61.6627 1076.29 62.036 1076.04 62.516C1075.78 62.996 1075.65 63.5453 1075.65 64.164V64.34C1075.65 64.98 1075.79 65.5453 1076.07 66.036C1076.36 66.516 1076.75 66.8947 1077.25 67.172C1077.76 67.4387 1078.35 67.572 1079 67.572C1079.51 67.572 1079.98 67.4813 1080.42 67.3C1080.87 67.1187 1081.25 66.8413 1081.57 66.468L1082.21 67.204C1081.84 67.652 1081.37 67.9933 1080.8 68.228C1080.25 68.4627 1079.64 68.58 1078.96 68.58ZM1088.54 68.58C1087.71 68.58 1086.96 68.3987 1086.3 68.036C1085.65 67.6627 1085.14 67.156 1084.76 66.516C1084.39 65.8653 1084.2 65.124 1084.2 64.292C1084.2 63.4493 1084.39 62.708 1084.76 62.068C1085.14 61.428 1085.65 60.9267 1086.3 60.564C1086.96 60.2013 1087.71 60.02 1088.54 60.02C1089.26 60.02 1089.9 60.1587 1090.48 60.436C1091.05 60.7133 1091.51 61.1293 1091.84 61.684L1090.99 62.26C1090.7 61.8333 1090.34 61.5187 1089.92 61.316C1089.49 61.1133 1089.03 61.012 1088.52 61.012C1087.93 61.012 1087.39 61.1507 1086.91 61.428C1086.43 61.6947 1086.05 62.0733 1085.77 62.564C1085.5 63.0547 1085.36 63.6307 1085.36 64.292C1085.36 64.9533 1085.5 65.5293 1085.77 66.02C1086.05 66.5107 1086.43 66.8947 1086.91 67.172C1087.39 67.4387 1087.93 67.572 1088.52 67.572C1089.03 67.572 1089.49 67.4707 1089.92 67.268C1090.34 67.0653 1090.7 66.756 1090.99 66.34L1091.84 66.916C1091.51 67.46 1091.05 67.876 1090.48 68.164C1089.9 68.4413 1089.26 68.58 1088.54 68.58ZM1098.23 60.02C1098.91 60.02 1099.51 60.1533 1100.02 60.42C1100.55 60.676 1100.95 61.0707 1101.24 61.604C1101.54 62.1373 1101.69 62.8093 1101.69 63.62V68.5H1100.55V63.732C1100.55 62.8467 1100.33 62.18 1099.88 61.732C1099.44 61.2733 1098.82 61.044 1098.02 61.044C1097.43 61.044 1096.9 61.1667 1096.46 61.412C1096.02 61.6467 1095.68 61.9933 1095.43 62.452C1095.2 62.9 1095.08 63.444 1095.08 64.084V68.5H1093.94V56.628H1095.08V62.404L1094.86 61.972C1095.12 61.364 1095.55 60.8893 1096.14 60.548C1096.72 60.196 1097.42 60.02 1098.23 60.02ZM1109.04 60.02C1109.73 60.02 1110.32 60.1533 1110.84 60.42C1111.36 60.676 1111.76 61.0707 1112.05 61.604C1112.35 62.1373 1112.5 62.8093 1112.5 63.62V68.5H1111.36V63.732C1111.36 62.8467 1111.14 62.18 1110.69 61.732C1110.25 61.2733 1109.64 61.044 1108.84 61.044C1108.24 61.044 1107.72 61.1667 1107.27 61.412C1106.83 61.6467 1106.49 61.9933 1106.24 62.452C1106.01 62.9 1105.89 63.444 1105.89 64.084V68.5H1104.76V60.1H1105.84V62.404L1105.67 61.972C1105.93 61.364 1106.36 60.8893 1106.95 60.548C1107.53 60.196 1108.23 60.02 1109.04 60.02ZM1115.57 68.5V60.1H1116.7V68.5H1115.57ZM1116.14 58.244C1115.91 58.244 1115.71 58.164 1115.55 58.004C1115.39 57.844 1115.31 57.652 1115.31 57.428C1115.31 57.204 1115.39 57.0173 1115.55 56.868C1115.71 56.708 1115.91 56.628 1116.14 56.628C1116.38 56.628 1116.58 56.7027 1116.74 56.852C1116.9 57.0013 1116.98 57.188 1116.98 57.412C1116.98 57.6467 1116.9 57.844 1116.74 58.004C1116.59 58.164 1116.39 58.244 1116.14 58.244ZM1120.76 66.324L1120.79 64.868L1126.03 60.1H1127.42L1123.72 63.636L1123.08 64.18L1120.76 66.324ZM1119.87 68.5V56.628H1121V68.5H1119.87ZM1126.38 68.5L1122.87 64.132L1123.61 63.252L1127.77 68.5H1126.38ZM1132.57 68.58C1131.76 68.58 1131.03 68.3987 1130.38 68.036C1129.74 67.6627 1129.23 67.156 1128.86 66.516C1128.49 65.8653 1128.3 65.124 1128.3 64.292C1128.3 63.4493 1128.49 62.708 1128.86 62.068C1129.23 61.428 1129.74 60.9267 1130.38 60.564C1131.02 60.2013 1131.75 60.02 1132.57 60.02C1133.4 60.02 1134.14 60.2013 1134.78 60.564C1135.43 60.9267 1135.94 61.428 1136.3 62.068C1136.67 62.708 1136.86 63.4493 1136.86 64.292C1136.86 65.124 1136.67 65.8653 1136.3 66.516C1135.94 67.156 1135.43 67.6627 1134.78 68.036C1134.13 68.3987 1133.39 68.58 1132.57 68.58ZM1132.57 67.572C1133.18 67.572 1133.72 67.4387 1134.19 67.172C1134.66 66.8947 1135.02 66.5107 1135.29 66.02C1135.57 65.5187 1135.71 64.9427 1135.71 64.292C1135.71 63.6307 1135.57 63.0547 1135.29 62.564C1135.02 62.0733 1134.66 61.6947 1134.19 61.428C1133.72 61.1507 1133.18 61.012 1132.59 61.012C1131.99 61.012 1131.46 61.1507 1130.99 61.428C1130.52 61.6947 1130.14 62.0733 1129.87 62.564C1129.59 63.0547 1129.45 63.6307 1129.45 64.292C1129.45 64.9427 1129.59 65.5187 1129.87 66.02C1130.14 66.5107 1130.52 66.8947 1130.99 67.172C1131.46 67.4387 1131.98 67.572 1132.57 67.572ZM1141.1 68.5L1137.38 60.1H1138.56L1141.98 67.892H1141.42L1144.9 60.1H1146.02L1142.27 68.5H1141.1ZM1152.63 68.5V66.644L1152.58 66.34V63.236C1152.58 62.5213 1152.38 61.972 1151.97 61.588C1151.58 61.204 1150.99 61.012 1150.2 61.012C1149.65 61.012 1149.14 61.1027 1148.65 61.284C1148.15 61.4653 1147.74 61.7053 1147.4 62.004L1146.89 61.156C1147.31 60.7933 1147.82 60.516 1148.42 60.324C1149.02 60.1213 1149.65 60.02 1150.31 60.02C1151.4 60.02 1152.23 60.292 1152.82 60.836C1153.42 61.3693 1153.72 62.1853 1153.72 63.284V68.5H1152.63ZM1149.73 68.58C1149.1 68.58 1148.55 68.4787 1148.09 68.276C1147.63 68.0627 1147.27 67.7747 1147.03 67.412C1146.78 67.0387 1146.66 66.612 1146.66 66.132C1146.66 65.6947 1146.76 65.3 1146.97 64.948C1147.18 64.5853 1147.52 64.2973 1147.99 64.084C1148.47 63.86 1149.11 63.748 1149.91 63.748H1152.81V64.596H1149.94C1149.13 64.596 1148.57 64.74 1148.25 65.028C1147.94 65.316 1147.78 65.6733 1147.78 66.1C1147.78 66.58 1147.97 66.964 1148.34 67.252C1148.71 67.54 1149.24 67.684 1149.91 67.684C1150.55 67.684 1151.1 67.54 1151.56 67.252C1152.03 66.9533 1152.37 66.5267 1152.58 65.972L1152.84 66.756C1152.62 67.3107 1152.25 67.7533 1151.72 68.084C1151.19 68.4147 1150.53 68.58 1149.73 68.58ZM1163.25 68.58C1162.55 68.58 1161.9 68.484 1161.28 68.292C1160.66 68.0893 1160.17 67.8387 1159.82 67.54L1160.33 66.644C1160.68 66.9 1161.11 67.124 1161.65 67.316C1162.18 67.4973 1162.74 67.588 1163.33 67.588C1164.13 67.588 1164.7 67.4653 1165.05 67.22C1165.41 66.964 1165.58 66.628 1165.58 66.212C1165.58 65.9027 1165.48 65.6627 1165.28 65.492C1165.09 65.3107 1164.83 65.1773 1164.51 65.092C1164.19 64.996 1163.83 64.916 1163.44 64.852C1163.04 64.788 1162.65 64.7133 1162.25 64.628C1161.87 64.5427 1161.52 64.42 1161.2 64.26C1160.88 64.0893 1160.62 63.86 1160.41 63.572C1160.22 63.284 1160.13 62.9 1160.13 62.42C1160.13 61.9613 1160.25 61.5507 1160.51 61.188C1160.77 60.8253 1161.14 60.5427 1161.63 60.34C1162.13 60.1267 1162.74 60.02 1163.45 60.02C1164 60.02 1164.54 60.0947 1165.09 60.244C1165.63 60.3827 1166.08 60.5693 1166.43 60.804L1165.93 61.716C1165.56 61.46 1165.16 61.2787 1164.73 61.172C1164.31 61.0547 1163.88 60.996 1163.45 60.996C1162.7 60.996 1162.14 61.1293 1161.77 61.396C1161.42 61.652 1161.25 61.9827 1161.25 62.388C1161.25 62.708 1161.34 62.9587 1161.53 63.14C1161.74 63.3213 1162 63.4653 1162.32 63.572C1162.65 63.668 1163.01 63.748 1163.39 63.812C1163.78 63.876 1164.17 63.956 1164.56 64.052C1164.95 64.1373 1165.31 64.26 1165.63 64.42C1165.96 64.5693 1166.22 64.788 1166.41 65.076C1166.62 65.3533 1166.72 65.7213 1166.72 66.18C1166.72 66.6707 1166.58 67.0973 1166.3 67.46C1166.04 67.812 1165.64 68.0893 1165.12 68.292C1164.61 68.484 1163.98 68.58 1163.25 68.58ZM1171.46 68.58C1170.67 68.58 1170.06 68.3667 1169.63 67.94C1169.21 67.5133 1168.99 66.9107 1168.99 66.132V58.244H1170.13V66.068C1170.13 66.5587 1170.25 66.9373 1170.5 67.204C1170.75 67.4707 1171.12 67.604 1171.59 67.604C1172.09 67.604 1172.5 67.46 1172.83 67.172L1173.23 67.988C1173.01 68.1907 1172.74 68.34 1172.42 68.436C1172.11 68.532 1171.79 68.58 1171.46 68.58ZM1167.49 61.044V60.1H1172.69V61.044H1167.49ZM1175.3 68.5V60.1H1176.39V62.388L1176.28 61.988C1176.51 61.348 1176.91 60.8627 1177.46 60.532C1178.02 60.1907 1178.71 60.02 1179.53 60.02V61.124C1179.48 61.124 1179.44 61.124 1179.4 61.124C1179.36 61.1133 1179.31 61.108 1179.27 61.108C1178.39 61.108 1177.69 61.38 1177.19 61.924C1176.69 62.4573 1176.44 63.22 1176.44 64.212V68.5H1175.3ZM1180.88 70.836L1181.58 67.876L1181.71 68.564C1181.47 68.564 1181.26 68.484 1181.09 68.324C1180.93 68.164 1180.85 67.956 1180.85 67.7C1180.85 67.444 1180.93 67.236 1181.09 67.076C1181.26 66.916 1181.46 66.836 1181.7 66.836C1181.94 66.836 1182.14 66.9213 1182.29 67.092C1182.45 67.2627 1182.53 67.4653 1182.53 67.7C1182.53 67.7853 1182.52 67.8707 1182.51 67.956C1182.5 68.0413 1182.48 68.1373 1182.45 68.244C1182.42 68.3507 1182.37 68.4787 1182.32 68.628L1181.65 70.836H1180.88ZM1190.35 68.5V57.78L1190.86 58.324H1187.71V57.3H1191.5V68.5H1190.35ZM1193.98 65.556V64.724L1199.92 57.3H1201.2L1195.31 64.724L1194.69 64.532H1203.7V65.556H1193.98ZM1200.3 68.5V65.556L1200.34 64.532V61.94H1201.46V68.5H1200.3ZM1203.97 70.1L1209.26 55.028H1210.3L1205.02 70.1H1203.97ZM1213 68.5V57.78L1213.51 58.324H1210.36V57.3H1214.15V68.5H1213Z" fill="white"/>
<circle cx="1225" cy="62.5" r="3" fill="#E6E6F0"/>
<path d="M1239.77 68.692C1238.85 68.692 1238.03 68.468 1237.3 68.02C1236.58 67.5613 1236.01 66.9 1235.59 66.036C1235.18 65.172 1234.97 64.1267 1234.97 62.9C1234.97 61.6733 1235.18 60.628 1235.59 59.764C1236.01 58.9 1236.58 58.244 1237.3 57.796C1238.03 57.3373 1238.85 57.108 1239.77 57.108C1240.7 57.108 1241.52 57.3373 1242.23 57.796C1242.96 58.244 1243.53 58.9 1243.94 59.764C1244.36 60.628 1244.57 61.6733 1244.57 62.9C1244.57 64.1267 1244.36 65.172 1243.94 66.036C1243.53 66.9 1242.96 67.5613 1242.23 68.02C1241.52 68.468 1240.7 68.692 1239.77 68.692ZM1239.77 66.5C1240.21 66.5 1240.58 66.3773 1240.9 66.132C1241.23 65.8867 1241.49 65.4973 1241.67 64.964C1241.86 64.4307 1241.96 63.7427 1241.96 62.9C1241.96 62.0573 1241.86 61.3693 1241.67 60.836C1241.49 60.3027 1241.23 59.9133 1240.9 59.668C1240.58 59.4227 1240.21 59.3 1239.77 59.3C1239.34 59.3 1238.96 59.4227 1238.63 59.668C1238.31 59.9133 1238.06 60.3027 1237.86 60.836C1237.68 61.3693 1237.59 62.0573 1237.59 62.9C1237.59 63.7427 1237.68 64.4307 1237.86 64.964C1238.06 65.4973 1238.31 65.8867 1238.63 66.132C1238.96 66.3773 1239.34 66.5 1239.77 66.5ZM1250.47 68.692C1249.53 68.692 1248.71 68.5533 1248 68.276C1247.3 67.988 1246.75 67.588 1246.36 67.076C1245.96 66.5533 1245.76 65.9453 1245.76 65.252C1245.76 64.5587 1245.96 63.972 1246.34 63.492C1246.73 63.0013 1247.28 62.6333 1247.99 62.388C1248.69 62.132 1249.52 62.004 1250.47 62.004C1251.43 62.004 1252.26 62.132 1252.96 62.388C1253.68 62.6333 1254.23 63.0013 1254.61 63.492C1255.01 63.972 1255.2 64.5587 1255.2 65.252C1255.2 65.9453 1255.01 66.5533 1254.61 67.076C1254.22 67.588 1253.66 67.988 1252.95 68.276C1252.24 68.5533 1251.42 68.692 1250.47 68.692ZM1250.47 66.788C1251.12 66.788 1251.63 66.644 1252 66.356C1252.39 66.068 1252.58 65.6733 1252.58 65.172C1252.58 64.6707 1252.39 64.2813 1252 64.004C1251.63 63.716 1251.12 63.572 1250.47 63.572C1249.83 63.572 1249.32 63.716 1248.95 64.004C1248.57 64.2813 1248.39 64.6707 1248.39 65.172C1248.39 65.6733 1248.57 66.068 1248.95 66.356C1249.32 66.644 1249.83 66.788 1250.47 66.788ZM1250.47 63.316C1249.6 63.316 1248.85 63.1987 1248.2 62.964C1247.56 62.7293 1247.05 62.388 1246.69 61.94C1246.34 61.4813 1246.16 60.9373 1246.16 60.308C1246.16 59.6467 1246.34 59.0813 1246.71 58.612C1247.07 58.132 1247.58 57.764 1248.23 57.508C1248.88 57.2413 1249.62 57.108 1250.47 57.108C1251.33 57.108 1252.08 57.2413 1252.72 57.508C1253.37 57.764 1253.88 58.132 1254.24 58.612C1254.62 59.0813 1254.8 59.6467 1254.8 60.308C1254.8 60.9373 1254.62 61.4813 1254.26 61.94C1253.91 62.388 1253.41 62.7293 1252.76 62.964C1252.1 63.1987 1251.34 63.316 1250.47 63.316ZM1250.47 61.796C1251.01 61.796 1251.44 61.6733 1251.75 61.428C1252.07 61.1827 1252.23 60.8467 1252.23 60.42C1252.23 59.972 1252.06 59.6253 1251.73 59.38C1251.41 59.1347 1250.99 59.012 1250.47 59.012C1249.96 59.012 1249.54 59.1347 1249.22 59.38C1248.9 59.6253 1248.74 59.972 1248.74 60.42C1248.74 60.8467 1248.89 61.1827 1249.2 61.428C1249.51 61.6733 1249.93 61.796 1250.47 61.796ZM1261.19 68.692C1260.27 68.692 1259.45 68.468 1258.73 68.02C1258 67.5613 1257.43 66.9 1257.01 66.036C1256.6 65.172 1256.39 64.1267 1256.39 62.9C1256.39 61.6733 1256.6 60.628 1257.01 59.764C1257.43 58.9 1258 58.244 1258.73 57.796C1259.45 57.3373 1260.27 57.108 1261.19 57.108C1262.12 57.108 1262.94 57.3373 1263.65 57.796C1264.38 58.244 1264.95 58.9 1265.37 59.764C1265.78 60.628 1265.99 61.6733 1265.99 62.9C1265.99 64.1267 1265.78 65.172 1265.37 66.036C1264.95 66.9 1264.38 67.5613 1263.65 68.02C1262.94 68.468 1262.12 68.692 1261.19 68.692ZM1261.19 66.5C1261.63 66.5 1262.01 66.3773 1262.33 66.132C1262.66 65.8867 1262.91 65.4973 1263.09 64.964C1263.29 64.4307 1263.38 63.7427 1263.38 62.9C1263.38 62.0573 1263.29 61.3693 1263.09 60.836C1262.91 60.3027 1262.66 59.9133 1262.33 59.668C1262.01 59.4227 1261.63 59.3 1261.19 59.3C1260.76 59.3 1260.38 59.4227 1260.05 59.668C1259.73 59.9133 1259.48 60.3027 1259.29 60.836C1259.1 61.3693 1259.01 62.0573 1259.01 62.9C1259.01 63.7427 1259.1 64.4307 1259.29 64.964C1259.48 65.4973 1259.73 65.8867 1260.05 66.132C1260.38 66.3773 1260.76 66.5 1261.19 66.5ZM1272.05 68.692C1271.13 68.692 1270.31 68.468 1269.59 68.02C1268.86 67.5613 1268.29 66.9 1267.87 66.036C1267.46 65.172 1267.25 64.1267 1267.25 62.9C1267.25 61.6733 1267.46 60.628 1267.87 59.764C1268.29 58.9 1268.86 58.244 1269.59 57.796C1270.31 57.3373 1271.13 57.108 1272.05 57.108C1272.98 57.108 1273.8 57.3373 1274.51 57.796C1275.24 58.244 1275.81 58.9 1276.23 59.764C1276.64 60.628 1276.85 61.6733 1276.85 62.9C1276.85 64.1267 1276.64 65.172 1276.23 66.036C1275.81 66.9 1275.24 67.5613 1274.51 68.02C1273.8 68.468 1272.98 68.692 1272.05 68.692ZM1272.05 66.5C1272.49 66.5 1272.87 66.3773 1273.19 66.132C1273.52 65.8867 1273.77 65.4973 1273.95 64.964C1274.15 64.4307 1274.24 63.7427 1274.24 62.9C1274.24 62.0573 1274.15 61.3693 1273.95 60.836C1273.77 60.3027 1273.52 59.9133 1273.19 59.668C1272.87 59.4227 1272.49 59.3 1272.05 59.3C1271.62 59.3 1271.24 59.4227 1270.91 59.668C1270.59 59.9133 1270.34 60.3027 1270.15 60.836C1269.96 61.3693 1269.87 62.0573 1269.87 62.9C1269.87 63.7427 1269.96 64.4307 1270.15 64.964C1270.34 65.4973 1270.59 65.8867 1270.91 66.132C1271.24 66.3773 1271.62 66.5 1272.05 66.5ZM1282.54 68.5V66.82L1286.86 62.74C1287.2 62.4307 1287.46 62.1533 1287.62 61.908C1287.78 61.6627 1287.88 61.4387 1287.94 61.236C1288 61.0333 1288.03 60.8467 1288.03 60.676C1288.03 60.228 1287.88 59.8867 1287.57 59.652C1287.27 59.4067 1286.83 59.284 1286.24 59.284C1285.77 59.284 1285.33 59.3747 1284.93 59.556C1284.53 59.7373 1284.2 60.02 1283.92 60.404L1282.03 59.188C1282.46 58.548 1283.06 58.0413 1283.82 57.668C1284.59 57.2947 1285.48 57.108 1286.48 57.108C1287.31 57.108 1288.04 57.2467 1288.66 57.524C1289.28 57.7907 1289.77 58.1693 1290.11 58.66C1290.46 59.1507 1290.64 59.7373 1290.64 60.42C1290.64 60.7827 1290.59 61.1453 1290.5 61.508C1290.41 61.86 1290.23 62.2333 1289.95 62.628C1289.68 63.0227 1289.29 63.4653 1288.77 63.956L1285.18 67.332L1284.69 66.388H1291.01V68.5H1282.54ZM1293.81 68.5V58.26L1294.93 59.38H1291.57V57.3H1296.4V68.5H1293.81ZM1300.07 68.5V58.26L1301.19 59.38H1297.83V57.3H1302.66V68.5H1300.07ZM1313.08 57.108C1314.11 57.108 1315 57.3213 1315.75 57.748C1316.49 58.1747 1317.07 58.7987 1317.48 59.62C1317.88 60.4307 1318.08 61.444 1318.08 62.66C1318.08 63.9507 1317.84 65.044 1317.35 65.94C1316.87 66.836 1316.2 67.5187 1315.35 67.988C1314.49 68.4573 1313.5 68.692 1312.37 68.692C1311.78 68.692 1311.22 68.628 1310.68 68.5C1310.13 68.372 1309.66 68.18 1309.27 67.924L1310.23 66.02C1310.54 66.2333 1310.87 66.3827 1311.22 66.468C1311.57 66.5427 1311.94 66.58 1312.32 66.58C1313.28 66.58 1314.05 66.2867 1314.61 65.7C1315.19 65.1133 1315.48 64.244 1315.48 63.092C1315.48 62.9 1315.47 62.6867 1315.46 62.452C1315.45 62.2173 1315.42 61.9827 1315.38 61.748L1316.08 62.42C1315.9 62.836 1315.65 63.188 1315.32 63.476C1314.98 63.7533 1314.6 63.9667 1314.16 64.116C1313.73 64.2547 1313.24 64.324 1312.69 64.324C1311.98 64.324 1311.33 64.18 1310.74 63.892C1310.16 63.604 1309.7 63.1987 1309.35 62.676C1309.01 62.1533 1308.84 61.54 1308.84 60.836C1308.84 60.068 1309.02 59.4067 1309.4 58.852C1309.78 58.2973 1310.29 57.8707 1310.93 57.572C1311.58 57.2627 1312.3 57.108 1313.08 57.108ZM1313.24 59.044C1312.86 59.044 1312.54 59.1133 1312.26 59.252C1311.98 59.38 1311.76 59.572 1311.6 59.828C1311.44 60.0733 1311.36 60.3667 1311.36 60.708C1311.36 61.22 1311.53 61.6307 1311.88 61.94C1312.23 62.2387 1312.69 62.388 1313.27 62.388C1313.64 62.388 1313.97 62.3187 1314.26 62.18C1314.56 62.0307 1314.79 61.828 1314.95 61.572C1315.11 61.316 1315.19 61.028 1315.19 60.708C1315.19 60.388 1315.11 60.1053 1314.95 59.86C1314.8 59.604 1314.58 59.4067 1314.29 59.268C1314 59.1187 1313.65 59.044 1313.24 59.044ZM1319.17 68.5V66.82L1323.49 62.74C1323.83 62.4307 1324.08 62.1533 1324.24 61.908C1324.4 61.6627 1324.51 61.4387 1324.56 61.236C1324.62 61.0333 1324.66 60.8467 1324.66 60.676C1324.66 60.228 1324.5 59.8867 1324.19 59.652C1323.89 59.4067 1323.45 59.284 1322.86 59.284C1322.4 59.284 1321.96 59.3747 1321.55 59.556C1321.16 59.7373 1320.82 60.02 1320.54 60.404L1318.66 59.188C1319.08 58.548 1319.68 58.0413 1320.45 57.668C1321.22 57.2947 1322.1 57.108 1323.1 57.108C1323.94 57.108 1324.66 57.2467 1325.28 57.524C1325.91 57.7907 1326.4 58.1693 1326.74 58.66C1327.09 59.1507 1327.26 59.7373 1327.26 60.42C1327.26 60.7827 1327.22 61.1453 1327.12 61.508C1327.04 61.86 1326.85 62.2333 1326.58 62.628C1326.31 63.0227 1325.92 63.4653 1325.39 63.956L1321.81 67.332L1321.31 66.388H1327.63V68.5H1319.17ZM1330.49 68.5L1335.01 58.292L1335.68 59.412H1329.65L1330.8 58.196V61.236H1328.49V57.3H1337.47V58.98L1333.31 68.5H1330.49Z" fill="white"/>
<circle cx="1347" cy="62.5" r="3" fill="#E6E6F0"/>
<g clip-path="url(#clip5_22728_10268)">
<path d="M1380 62.5733C1380 55.9054 1374.63 50.5 1368 50.5C1361.37 50.5 1356 55.9054 1356 62.5733C1356 68.5995 1360.39 73.5943 1366.13 74.5V66.0633H1363.08V62.5733H1366.13V59.9134C1366.13 56.8875 1367.92 55.2161 1370.66 55.2161C1371.97 55.2161 1373.34 55.452 1373.34 55.452V58.4231H1371.83C1370.34 58.4231 1369.88 59.3538 1369.88 60.3086V62.5733H1373.2L1372.67 66.0633H1369.88V74.5C1375.61 73.5943 1380 68.5995 1380 62.5733Z" fill="white"/>
</g>
</g>
<path d="M971.073 107V105.32L970.913 104.952V101.944C970.913 101.411 970.747 100.995 970.417 100.696C970.097 100.397 969.601 100.248 968.929 100.248C968.47 100.248 968.017 100.323 967.569 100.472C967.131 100.611 966.758 100.803 966.449 101.048L965.553 99.304C966.022 98.9733 966.587 98.7173 967.249 98.536C967.91 98.3547 968.582 98.264 969.265 98.264C970.577 98.264 971.595 98.5733 972.321 99.192C973.046 99.8107 973.409 100.776 973.409 102.088V107H971.073ZM968.449 107.128C967.777 107.128 967.201 107.016 966.721 106.792C966.241 106.557 965.873 106.243 965.617 105.848C965.361 105.453 965.233 105.011 965.233 104.52C965.233 104.008 965.355 103.56 965.601 103.176C965.857 102.792 966.257 102.493 966.801 102.28C967.345 102.056 968.054 101.944 968.929 101.944H971.217V103.4H969.201C968.614 103.4 968.209 103.496 967.985 103.688C967.771 103.88 967.665 104.12 967.665 104.408C967.665 104.728 967.787 104.984 968.033 105.176C968.289 105.357 968.635 105.448 969.073 105.448C969.489 105.448 969.862 105.352 970.193 105.16C970.523 104.957 970.763 104.664 970.913 104.28L971.297 105.432C971.115 105.987 970.785 106.408 970.305 106.696C969.825 106.984 969.206 107.128 968.449 107.128ZM980.756 107.128C979.998 107.128 979.348 106.968 978.804 106.648C978.26 106.328 977.844 105.843 977.556 105.192C977.268 104.531 977.124 103.699 977.124 102.696C977.124 101.683 977.273 100.851 977.572 100.2C977.881 99.5493 978.308 99.064 978.852 98.744C979.396 98.424 980.03 98.264 980.756 98.264C981.566 98.264 982.292 98.4453 982.932 98.808C983.582 99.1707 984.094 99.6827 984.468 100.344C984.852 101.005 985.044 101.789 985.044 102.696C985.044 103.592 984.852 104.371 984.468 105.032C984.094 105.693 983.582 106.211 982.932 106.584C982.292 106.947 981.566 107.128 980.756 107.128ZM975.668 107V95.128H978.164V100.136L978.004 102.68L978.052 105.24V107H975.668ZM980.324 105.08C980.74 105.08 981.108 104.984 981.428 104.792C981.758 104.6 982.02 104.328 982.212 103.976C982.414 103.613 982.516 103.187 982.516 102.696C982.516 102.195 982.414 101.768 982.212 101.416C982.02 101.064 981.758 100.792 981.428 100.6C981.108 100.408 980.74 100.312 980.324 100.312C979.908 100.312 979.534 100.408 979.204 100.6C978.873 100.792 978.612 101.064 978.42 101.416C978.228 101.768 978.132 102.195 978.132 102.696C978.132 103.187 978.228 103.613 978.42 103.976C978.612 104.328 978.873 104.6 979.204 104.792C979.534 104.984 979.908 105.08 980.324 105.08ZM990.811 107.128C989.893 107.128 989.077 106.936 988.363 106.552C987.659 106.168 987.099 105.645 986.683 104.984C986.277 104.312 986.075 103.549 986.075 102.696C986.075 101.832 986.277 101.069 986.683 100.408C987.099 99.736 987.659 99.2133 988.363 98.84C989.077 98.456 989.893 98.264 990.811 98.264C991.717 98.264 992.528 98.456 993.243 98.84C993.957 99.2133 994.517 99.7307 994.923 100.392C995.328 101.053 995.531 101.821 995.531 102.696C995.531 103.549 995.328 104.312 994.923 104.984C994.517 105.645 993.957 106.168 993.243 106.552C992.528 106.936 991.717 107.128 990.811 107.128ZM990.811 105.08C991.227 105.08 991.6 104.984 991.931 104.792C992.261 104.6 992.523 104.328 992.715 103.976C992.907 103.613 993.003 103.187 993.003 102.696C993.003 102.195 992.907 101.768 992.715 101.416C992.523 101.064 992.261 100.792 991.931 100.6C991.6 100.408 991.227 100.312 990.811 100.312C990.395 100.312 990.021 100.408 989.691 100.6C989.36 100.792 989.093 101.064 988.891 101.416C988.699 101.768 988.603 102.195 988.603 102.696C988.603 103.187 988.699 103.613 988.891 103.976C989.093 104.328 989.36 104.6 989.691 104.792C990.021 104.984 990.395 105.08 990.811 105.08ZM1000.83 107.128C1000.12 107.128 999.476 106.989 998.911 106.712C998.356 106.435 997.924 106.013 997.615 105.448C997.306 104.872 997.151 104.141 997.151 103.256V98.392H999.647V102.888C999.647 103.603 999.796 104.131 1000.09 104.472C1000.4 104.803 1000.84 104.968 1001.39 104.968C1001.77 104.968 1002.12 104.888 1002.41 104.728C1002.71 104.557 1002.95 104.301 1003.12 103.96C1003.29 103.608 1003.37 103.171 1003.37 102.648V98.392H1005.87V107H1003.5V104.632L1003.93 105.32C1003.65 105.917 1003.22 106.371 1002.65 106.68C1002.1 106.979 1001.49 107.128 1000.83 107.128ZM1011.7 107.128C1010.69 107.128 1009.9 106.872 1009.34 106.36C1008.77 105.837 1008.49 105.064 1008.49 104.04V96.488H1010.98V104.008C1010.98 104.371 1011.08 104.653 1011.27 104.856C1011.46 105.048 1011.72 105.144 1012.06 105.144C1012.45 105.144 1012.79 105.037 1013.06 104.824L1013.74 106.584C1013.48 106.765 1013.17 106.904 1012.81 107C1012.46 107.085 1012.09 107.128 1011.7 107.128ZM1007.16 100.504V98.584H1013.13V100.504H1007.16ZM1023.3 107.128C1022.58 107.128 1021.94 106.989 1021.38 106.712C1020.82 106.435 1020.39 106.013 1020.08 105.448C1019.77 104.872 1019.62 104.141 1019.62 103.256V98.392H1022.12V102.888C1022.12 103.603 1022.26 104.131 1022.56 104.472C1022.87 104.803 1023.3 104.968 1023.86 104.968C1024.24 104.968 1024.58 104.888 1024.88 104.728C1025.18 104.557 1025.42 104.301 1025.59 103.96C1025.76 103.608 1025.84 103.171 1025.84 102.648V98.392H1028.34V107H1025.97V104.632L1026.4 105.32C1026.12 105.917 1025.69 106.371 1025.12 106.68C1024.57 106.979 1023.96 107.128 1023.3 107.128ZM1033.55 107.128C1032.81 107.128 1032.1 107.043 1031.42 106.872C1030.75 106.691 1030.21 106.467 1029.82 106.2L1030.65 104.408C1031.05 104.653 1031.51 104.856 1032.04 105.016C1032.59 105.165 1033.12 105.24 1033.64 105.24C1034.22 105.24 1034.63 105.171 1034.86 105.032C1035.11 104.893 1035.23 104.701 1035.23 104.456C1035.23 104.253 1035.13 104.104 1034.94 104.008C1034.76 103.901 1034.51 103.821 1034.2 103.768C1033.89 103.715 1033.55 103.661 1033.18 103.608C1032.82 103.555 1032.45 103.485 1032.08 103.4C1031.7 103.304 1031.36 103.165 1031.05 102.984C1030.74 102.803 1030.49 102.557 1030.3 102.248C1030.12 101.939 1030.03 101.539 1030.03 101.048C1030.03 100.504 1030.18 100.024 1030.49 99.608C1030.81 99.192 1031.27 98.8667 1031.87 98.632C1032.47 98.3867 1033.18 98.264 1034.01 98.264C1034.6 98.264 1035.2 98.328 1035.8 98.456C1036.41 98.584 1036.92 98.7707 1037.32 99.016L1036.49 100.792C1036.08 100.547 1035.65 100.381 1035.23 100.296C1034.81 100.2 1034.41 100.152 1034.01 100.152C1033.46 100.152 1033.05 100.227 1032.8 100.376C1032.54 100.525 1032.41 100.717 1032.41 100.952C1032.41 101.165 1032.5 101.325 1032.68 101.432C1032.88 101.539 1033.13 101.624 1033.44 101.688C1033.75 101.752 1034.08 101.811 1034.44 101.864C1034.82 101.907 1035.19 101.976 1035.56 102.072C1035.94 102.168 1036.27 102.307 1036.57 102.488C1036.88 102.659 1037.13 102.899 1037.32 103.208C1037.52 103.507 1037.61 103.901 1037.61 104.392C1037.61 104.925 1037.45 105.4 1037.13 105.816C1036.81 106.221 1036.35 106.541 1035.74 106.776C1035.14 107.011 1034.41 107.128 1033.55 107.128Z" fill="white"/>
<path d="M1058.02 107.128C1057.28 107.128 1056.57 107.043 1055.89 106.872C1055.22 106.691 1054.68 106.467 1054.29 106.2L1055.12 104.408C1055.52 104.653 1055.98 104.856 1056.51 105.016C1057.06 105.165 1057.59 105.24 1058.11 105.24C1058.69 105.24 1059.09 105.171 1059.33 105.032C1059.57 104.893 1059.7 104.701 1059.7 104.456C1059.7 104.253 1059.6 104.104 1059.41 104.008C1059.23 103.901 1058.98 103.821 1058.67 103.768C1058.36 103.715 1058.02 103.661 1057.65 103.608C1057.29 103.555 1056.92 103.485 1056.54 103.4C1056.17 103.304 1055.83 103.165 1055.52 102.984C1055.21 102.803 1054.96 102.557 1054.77 102.248C1054.59 101.939 1054.5 101.539 1054.5 101.048C1054.5 100.504 1054.65 100.024 1054.96 99.608C1055.28 99.192 1055.74 98.8667 1056.34 98.632C1056.93 98.3867 1057.65 98.264 1058.48 98.264C1059.07 98.264 1059.66 98.328 1060.27 98.456C1060.88 98.584 1061.39 98.7707 1061.79 99.016L1060.96 100.792C1060.54 100.547 1060.12 100.381 1059.7 100.296C1059.28 100.2 1058.88 100.152 1058.48 100.152C1057.93 100.152 1057.52 100.227 1057.26 100.376C1057.01 100.525 1056.88 100.717 1056.88 100.952C1056.88 101.165 1056.97 101.325 1057.15 101.432C1057.34 101.539 1057.6 101.624 1057.9 101.688C1058.21 101.752 1058.55 101.811 1058.91 101.864C1059.29 101.907 1059.66 101.976 1060.03 102.072C1060.41 102.168 1060.74 102.307 1061.04 102.488C1061.35 102.659 1061.6 102.899 1061.79 103.208C1061.98 103.507 1062.08 103.901 1062.08 104.392C1062.08 104.925 1061.92 105.4 1061.6 105.816C1061.28 106.221 1060.82 106.541 1060.21 106.776C1059.61 107.011 1058.88 107.128 1058.02 107.128ZM1067.89 107.128C1066.91 107.128 1066.05 106.936 1065.3 106.552C1064.56 106.168 1063.99 105.645 1063.59 104.984C1063.18 104.312 1062.98 103.549 1062.98 102.696C1062.98 101.832 1063.18 101.069 1063.57 100.408C1063.98 99.736 1064.53 99.2133 1065.22 98.84C1065.91 98.456 1066.7 98.264 1067.57 98.264C1068.42 98.264 1069.17 98.4453 1069.84 98.808C1070.53 99.16 1071.07 99.672 1071.46 100.344C1071.86 101.005 1072.05 101.8 1072.05 102.728C1072.05 102.824 1072.05 102.936 1072.04 103.064C1072.03 103.181 1072.02 103.293 1072 103.4H1065.01V101.944H1070.69L1069.73 102.376C1069.73 101.928 1069.64 101.539 1069.46 101.208C1069.28 100.877 1069.03 100.621 1068.71 100.44C1068.39 100.248 1068.02 100.152 1067.59 100.152C1067.16 100.152 1066.78 100.248 1066.45 100.44C1066.13 100.621 1065.88 100.883 1065.7 101.224C1065.52 101.555 1065.43 101.949 1065.43 102.408V102.792C1065.43 103.261 1065.53 103.677 1065.73 104.04C1065.95 104.392 1066.24 104.664 1066.61 104.856C1067 105.037 1067.44 105.128 1067.96 105.128C1068.42 105.128 1068.82 105.059 1069.16 104.92C1069.51 104.781 1069.83 104.573 1070.12 104.296L1071.44 105.736C1071.05 106.184 1070.55 106.531 1069.96 106.776C1069.36 107.011 1068.67 107.128 1067.89 107.128ZM1073.71 107V98.392H1076.1V100.824L1075.76 100.12C1076.02 99.512 1076.43 99.0533 1076.99 98.744C1077.56 98.424 1078.25 98.264 1079.06 98.264V100.568C1078.95 100.557 1078.86 100.552 1078.77 100.552C1078.69 100.541 1078.59 100.536 1078.5 100.536C1077.82 100.536 1077.26 100.733 1076.83 101.128C1076.42 101.512 1076.21 102.115 1076.21 102.936V107H1073.71ZM1083.18 107L1079.56 98.392H1082.14L1085.14 105.8H1083.86L1086.98 98.392H1089.38L1085.75 107H1083.18ZM1090.4 107V98.392H1092.9V107H1090.4ZM1091.65 97.192C1091.19 97.192 1090.82 97.0587 1090.53 96.792C1090.24 96.5253 1090.1 96.1947 1090.1 95.8C1090.1 95.4053 1090.24 95.0747 1090.53 94.808C1090.82 94.5413 1091.19 94.408 1091.65 94.408C1092.11 94.408 1092.48 94.536 1092.77 94.792C1093.06 95.0373 1093.2 95.3573 1093.2 95.752C1093.2 96.168 1093.06 96.5147 1092.77 96.792C1092.49 97.0587 1092.12 97.192 1091.65 97.192ZM1099.37 107.128C1098.45 107.128 1097.62 106.941 1096.89 106.568C1096.17 106.184 1095.6 105.656 1095.18 104.984C1094.78 104.312 1094.57 103.549 1094.57 102.696C1094.57 101.832 1094.78 101.069 1095.18 100.408C1095.6 99.736 1096.17 99.2133 1096.89 98.84C1097.62 98.456 1098.45 98.264 1099.37 98.264C1100.28 98.264 1101.07 98.456 1101.74 98.84C1102.41 99.2133 1102.91 99.752 1103.23 100.456L1101.29 101.496C1101.07 101.091 1100.79 100.792 1100.45 100.6C1100.12 100.408 1099.75 100.312 1099.36 100.312C1098.93 100.312 1098.55 100.408 1098.21 100.6C1097.87 100.792 1097.59 101.064 1097.39 101.416C1097.2 101.768 1097.1 102.195 1097.1 102.696C1097.1 103.197 1097.2 103.624 1097.39 103.976C1097.59 104.328 1097.87 104.6 1098.21 104.792C1098.55 104.984 1098.93 105.08 1099.36 105.08C1099.75 105.08 1100.12 104.989 1100.45 104.808C1100.79 104.616 1101.07 104.312 1101.29 103.896L1103.23 104.952C1102.91 105.645 1102.41 106.184 1101.74 106.568C1101.07 106.941 1100.28 107.128 1099.37 107.128ZM1108.83 107.128C1107.85 107.128 1106.98 106.936 1106.24 106.552C1105.5 106.168 1104.93 105.645 1104.53 104.984C1104.12 104.312 1103.92 103.549 1103.92 102.696C1103.92 101.832 1104.12 101.069 1104.51 100.408C1104.92 99.736 1105.46 99.2133 1106.16 98.84C1106.85 98.456 1107.64 98.264 1108.51 98.264C1109.35 98.264 1110.11 98.4453 1110.78 98.808C1111.46 99.16 1112 99.672 1112.4 100.344C1112.79 101.005 1112.99 101.8 1112.99 102.728C1112.99 102.824 1112.98 102.936 1112.97 103.064C1112.96 103.181 1112.95 103.293 1112.94 103.4H1105.95V101.944H1111.63L1110.67 102.376C1110.67 101.928 1110.58 101.539 1110.4 101.208C1110.22 100.877 1109.97 100.621 1109.65 100.44C1109.33 100.248 1108.95 100.152 1108.53 100.152C1108.1 100.152 1107.72 100.248 1107.39 100.44C1107.07 100.621 1106.82 100.883 1106.64 101.224C1106.46 101.555 1106.37 101.949 1106.37 102.408V102.792C1106.37 103.261 1106.47 103.677 1106.67 104.04C1106.88 104.392 1107.18 104.664 1107.55 104.856C1107.93 105.037 1108.38 105.128 1108.89 105.128C1109.35 105.128 1109.75 105.059 1110.09 104.92C1110.45 104.781 1110.77 104.573 1111.05 104.296L1112.38 105.736C1111.99 106.184 1111.49 106.531 1110.89 106.776C1110.3 107.011 1109.61 107.128 1108.83 107.128ZM1117.55 107.128C1116.81 107.128 1116.1 107.043 1115.42 106.872C1114.75 106.691 1114.21 106.467 1113.82 106.2L1114.65 104.408C1115.05 104.653 1115.51 104.856 1116.04 105.016C1116.59 105.165 1117.12 105.24 1117.64 105.24C1118.22 105.24 1118.63 105.171 1118.86 105.032C1119.11 104.893 1119.23 104.701 1119.23 104.456C1119.23 104.253 1119.13 104.104 1118.94 104.008C1118.76 103.901 1118.51 103.821 1118.2 103.768C1117.89 103.715 1117.55 103.661 1117.18 103.608C1116.82 103.555 1116.45 103.485 1116.08 103.4C1115.7 103.304 1115.36 103.165 1115.05 102.984C1114.74 102.803 1114.49 102.557 1114.3 102.248C1114.12 101.939 1114.03 101.539 1114.03 101.048C1114.03 100.504 1114.18 100.024 1114.49 99.608C1114.81 99.192 1115.27 98.8667 1115.87 98.632C1116.47 98.3867 1117.18 98.264 1118.01 98.264C1118.6 98.264 1119.2 98.328 1119.8 98.456C1120.41 98.584 1120.92 98.7707 1121.32 99.016L1120.49 100.792C1120.08 100.547 1119.65 100.381 1119.23 100.296C1118.81 100.2 1118.41 100.152 1118.01 100.152C1117.46 100.152 1117.05 100.227 1116.8 100.376C1116.54 100.525 1116.41 100.717 1116.41 100.952C1116.41 101.165 1116.5 101.325 1116.68 101.432C1116.88 101.539 1117.13 101.624 1117.44 101.688C1117.75 101.752 1118.08 101.811 1118.44 101.864C1118.82 101.907 1119.19 101.976 1119.56 102.072C1119.94 102.168 1120.27 102.307 1120.57 102.488C1120.88 102.659 1121.13 102.899 1121.32 103.208C1121.52 103.507 1121.61 103.901 1121.61 104.392C1121.61 104.925 1121.45 105.4 1121.13 105.816C1120.81 106.221 1120.35 106.541 1119.74 106.776C1119.14 107.011 1118.41 107.128 1117.55 107.128Z" fill="white"/>
<path d="M1142.47 107.128C1141.46 107.128 1140.67 106.872 1140.1 106.36C1139.54 105.837 1139.25 105.064 1139.25 104.04V96.488H1141.75V104.008C1141.75 104.371 1141.84 104.653 1142.04 104.856C1142.23 105.048 1142.49 105.144 1142.82 105.144C1143.22 105.144 1143.55 105.037 1143.83 104.824L1144.5 106.584C1144.24 106.765 1143.94 106.904 1143.57 107C1143.22 107.085 1142.85 107.128 1142.47 107.128ZM1137.92 100.504V98.584H1143.89V100.504H1137.92ZM1149.91 107.128C1148.93 107.128 1148.06 106.936 1147.32 106.552C1146.58 106.168 1146.01 105.645 1145.6 104.984C1145.2 104.312 1145 103.549 1145 102.696C1145 101.832 1145.19 101.069 1145.59 100.408C1145.99 99.736 1146.54 99.2133 1147.24 98.84C1147.93 98.456 1148.71 98.264 1149.59 98.264C1150.43 98.264 1151.19 98.4453 1151.86 98.808C1152.54 99.16 1153.08 99.672 1153.48 100.344C1153.87 101.005 1154.07 101.8 1154.07 102.728C1154.07 102.824 1154.06 102.936 1154.05 103.064C1154.04 103.181 1154.03 103.293 1154.02 103.4H1147.03V101.944H1152.71L1151.75 102.376C1151.75 101.928 1151.66 101.539 1151.48 101.208C1151.3 100.877 1151.04 100.621 1150.72 100.44C1150.4 100.248 1150.03 100.152 1149.6 100.152C1149.18 100.152 1148.8 100.248 1148.47 100.44C1148.15 100.621 1147.9 100.883 1147.72 101.224C1147.54 101.555 1147.44 101.949 1147.44 102.408V102.792C1147.44 103.261 1147.55 103.677 1147.75 104.04C1147.96 104.392 1148.26 104.664 1148.63 104.856C1149.01 105.037 1149.46 105.128 1149.97 105.128C1150.43 105.128 1150.83 105.059 1151.17 104.92C1151.52 104.781 1151.84 104.573 1152.13 104.296L1153.46 105.736C1153.07 106.184 1152.57 106.531 1151.97 106.776C1151.38 107.011 1150.69 107.128 1149.91 107.128ZM1160.78 107V105.32L1160.62 104.952V101.944C1160.62 101.411 1160.45 100.995 1160.12 100.696C1159.8 100.397 1159.3 100.248 1158.63 100.248C1158.17 100.248 1157.72 100.323 1157.27 100.472C1156.83 100.611 1156.46 100.803 1156.15 101.048L1155.26 99.304C1155.73 98.9733 1156.29 98.7173 1156.95 98.536C1157.61 98.3547 1158.29 98.264 1158.97 98.264C1160.28 98.264 1161.3 98.5733 1162.02 99.192C1162.75 99.8107 1163.11 100.776 1163.11 102.088V107H1160.78ZM1158.15 107.128C1157.48 107.128 1156.9 107.016 1156.42 106.792C1155.94 106.557 1155.58 106.243 1155.32 105.848C1155.06 105.453 1154.94 105.011 1154.94 104.52C1154.94 104.008 1155.06 103.56 1155.3 103.176C1155.56 102.792 1155.96 102.493 1156.5 102.28C1157.05 102.056 1157.76 101.944 1158.63 101.944H1160.92V103.4H1158.9C1158.32 103.4 1157.91 103.496 1157.69 103.688C1157.47 103.88 1157.37 104.12 1157.37 104.408C1157.37 104.728 1157.49 104.984 1157.74 105.176C1157.99 105.357 1158.34 105.448 1158.78 105.448C1159.19 105.448 1159.57 105.352 1159.9 105.16C1160.23 104.957 1160.47 104.664 1160.62 104.28L1161 105.432C1160.82 105.987 1160.49 106.408 1160.01 106.696C1159.53 106.984 1158.91 107.128 1158.15 107.128ZM1176.39 98.264C1177.08 98.264 1177.68 98.4027 1178.2 98.68C1178.74 98.9467 1179.15 99.3627 1179.45 99.928C1179.76 100.483 1179.91 101.197 1179.91 102.072V107H1177.42V102.456C1177.42 101.763 1177.27 101.251 1176.99 100.92C1176.7 100.589 1176.29 100.424 1175.77 100.424C1175.41 100.424 1175.08 100.509 1174.79 100.68C1174.51 100.84 1174.28 101.085 1174.12 101.416C1173.96 101.747 1173.88 102.168 1173.88 102.68V107H1171.39V102.456C1171.39 101.763 1171.24 101.251 1170.95 100.92C1170.68 100.589 1170.28 100.424 1169.75 100.424C1169.39 100.424 1169.07 100.509 1168.78 100.68C1168.49 100.84 1168.27 101.085 1168.11 101.416C1167.95 101.747 1167.87 102.168 1167.87 102.68V107H1165.37V98.392H1167.75V100.744L1167.31 100.056C1167.61 99.4693 1168.03 99.0267 1168.57 98.728C1169.13 98.4187 1169.75 98.264 1170.46 98.264C1171.25 98.264 1171.94 98.4667 1172.52 98.872C1173.12 99.2667 1173.51 99.8747 1173.71 100.696L1172.83 100.456C1173.11 99.784 1173.57 99.2507 1174.2 98.856C1174.84 98.4613 1175.57 98.264 1176.39 98.264Z" fill="white"/>
<path d="M1202.4 107.128C1201.67 107.128 1201.04 106.968 1200.49 106.648C1199.95 106.328 1199.52 105.843 1199.21 105.192C1198.91 104.531 1198.76 103.699 1198.76 102.696C1198.76 101.683 1198.91 100.851 1199.2 100.2C1199.48 99.5493 1199.9 99.064 1200.44 98.744C1200.99 98.424 1201.64 98.264 1202.4 98.264C1203.21 98.264 1203.93 98.4507 1204.57 98.824C1205.22 99.1867 1205.73 99.6987 1206.11 100.36C1206.49 101.021 1206.68 101.8 1206.68 102.696C1206.68 103.603 1206.49 104.387 1206.11 105.048C1205.73 105.709 1205.22 106.221 1204.57 106.584C1203.93 106.947 1203.21 107.128 1202.4 107.128ZM1197.31 110.104V98.392H1199.69V100.152L1199.64 102.712L1199.8 105.256V110.104H1197.31ZM1201.96 105.08C1202.38 105.08 1202.75 104.984 1203.07 104.792C1203.4 104.6 1203.66 104.328 1203.85 103.976C1204.05 103.613 1204.16 103.187 1204.16 102.696C1204.16 102.195 1204.05 101.768 1203.85 101.416C1203.66 101.064 1203.4 100.792 1203.07 100.6C1202.75 100.408 1202.38 100.312 1201.96 100.312C1201.55 100.312 1201.17 100.408 1200.84 100.6C1200.51 100.792 1200.25 101.064 1200.06 101.416C1199.87 101.768 1199.77 102.195 1199.77 102.696C1199.77 103.187 1199.87 103.613 1200.06 103.976C1200.25 104.328 1200.51 104.6 1200.84 104.792C1201.17 104.984 1201.55 105.08 1201.96 105.08ZM1211.99 107.128C1211.27 107.128 1210.63 106.989 1210.07 106.712C1209.51 106.435 1209.08 106.013 1208.77 105.448C1208.46 104.872 1208.31 104.141 1208.31 103.256V98.392H1210.8V102.888C1210.8 103.603 1210.95 104.131 1211.25 104.472C1211.56 104.803 1211.99 104.968 1212.55 104.968C1212.93 104.968 1213.27 104.888 1213.57 104.728C1213.87 104.557 1214.1 104.301 1214.28 103.96C1214.45 103.608 1214.53 103.171 1214.53 102.648V98.392H1217.03V107H1214.66V104.632L1215.09 105.32C1214.8 105.917 1214.38 106.371 1213.81 106.68C1213.26 106.979 1212.65 107.128 1211.99 107.128ZM1224.43 107.128C1223.67 107.128 1223.02 106.968 1222.48 106.648C1221.93 106.328 1221.52 105.843 1221.23 105.192C1220.94 104.531 1220.8 103.699 1220.8 102.696C1220.8 101.683 1220.94 100.851 1221.24 100.2C1221.55 99.5493 1221.98 99.064 1222.52 98.744C1223.07 98.424 1223.7 98.264 1224.43 98.264C1225.24 98.264 1225.96 98.4453 1226.6 98.808C1227.25 99.1707 1227.77 99.6827 1228.14 100.344C1228.52 101.005 1228.72 101.789 1228.72 102.696C1228.72 103.592 1228.52 104.371 1228.14 105.032C1227.77 105.693 1227.25 106.211 1226.6 106.584C1225.96 106.947 1225.24 107.128 1224.43 107.128ZM1219.34 107V95.128H1221.84V100.136L1221.68 102.68L1221.72 105.24V107H1219.34ZM1224 105.08C1224.41 105.08 1224.78 104.984 1225.1 104.792C1225.43 104.6 1225.69 104.328 1225.88 103.976C1226.09 103.613 1226.19 103.187 1226.19 102.696C1226.19 102.195 1226.09 101.768 1225.88 101.416C1225.69 101.064 1225.43 100.792 1225.1 100.6C1224.78 100.408 1224.41 100.312 1224 100.312C1223.58 100.312 1223.21 100.408 1222.88 100.6C1222.54 100.792 1222.28 101.064 1222.09 101.416C1221.9 101.768 1221.8 102.195 1221.8 102.696C1221.8 103.187 1221.9 103.613 1222.09 103.976C1222.28 104.328 1222.54 104.6 1222.88 104.792C1223.21 104.984 1223.58 105.08 1224 105.08ZM1230.39 107V95.128H1232.88V107H1230.39ZM1235.2 107V98.392H1237.69V107H1235.2ZM1236.45 97.192C1235.99 97.192 1235.61 97.0587 1235.33 96.792C1235.04 96.5253 1234.89 96.1947 1234.89 95.8C1234.89 95.4053 1235.04 95.0747 1235.33 94.808C1235.61 94.5413 1235.99 94.408 1236.45 94.408C1236.91 94.408 1237.28 94.536 1237.57 94.792C1237.85 95.0373 1238 95.3573 1238 95.752C1238 96.168 1237.85 96.5147 1237.57 96.792C1237.29 97.0587 1236.92 97.192 1236.45 97.192ZM1244.17 107.128C1243.24 107.128 1242.42 106.941 1241.69 106.568C1240.97 106.184 1240.4 105.656 1239.98 104.984C1239.57 104.312 1239.37 103.549 1239.37 102.696C1239.37 101.832 1239.57 101.069 1239.98 100.408C1240.4 99.736 1240.97 99.2133 1241.69 98.84C1242.42 98.456 1243.24 98.264 1244.17 98.264C1245.08 98.264 1245.87 98.456 1246.54 98.84C1247.21 99.2133 1247.71 99.752 1248.03 100.456L1246.09 101.496C1245.87 101.091 1245.58 100.792 1245.24 100.6C1244.91 100.408 1244.55 100.312 1244.16 100.312C1243.73 100.312 1243.34 100.408 1243 100.6C1242.66 100.792 1242.39 101.064 1242.19 101.416C1242 101.768 1241.9 102.195 1241.9 102.696C1241.9 103.197 1242 103.624 1242.19 103.976C1242.39 104.328 1242.66 104.6 1243 104.792C1243.34 104.984 1243.73 105.08 1244.16 105.08C1244.55 105.08 1244.91 104.989 1245.24 104.808C1245.58 104.616 1245.87 104.312 1246.09 103.896L1248.03 104.952C1247.71 105.645 1247.21 106.184 1246.54 106.568C1245.87 106.941 1245.08 107.128 1244.17 107.128ZM1254.74 107V105.32L1254.58 104.952V101.944C1254.58 101.411 1254.42 100.995 1254.09 100.696C1253.77 100.397 1253.27 100.248 1252.6 100.248C1252.14 100.248 1251.69 100.323 1251.24 100.472C1250.8 100.611 1250.43 100.803 1250.12 101.048L1249.22 99.304C1249.69 98.9733 1250.26 98.7173 1250.92 98.536C1251.58 98.3547 1252.25 98.264 1252.94 98.264C1254.25 98.264 1255.27 98.5733 1255.99 99.192C1256.72 99.8107 1257.08 100.776 1257.08 102.088V107H1254.74ZM1252.12 107.128C1251.45 107.128 1250.87 107.016 1250.39 106.792C1249.91 106.557 1249.54 106.243 1249.29 105.848C1249.03 105.453 1248.9 105.011 1248.9 104.52C1248.9 104.008 1249.03 103.56 1249.27 103.176C1249.53 102.792 1249.93 102.493 1250.47 102.28C1251.02 102.056 1251.73 101.944 1252.6 101.944H1254.89V103.4H1252.87C1252.29 103.4 1251.88 103.496 1251.66 103.688C1251.44 103.88 1251.34 104.12 1251.34 104.408C1251.34 104.728 1251.46 104.984 1251.7 105.176C1251.96 105.357 1252.31 105.448 1252.74 105.448C1253.16 105.448 1253.53 105.352 1253.86 105.16C1254.2 104.957 1254.44 104.664 1254.58 104.28L1254.97 105.432C1254.79 105.987 1254.46 106.408 1253.98 106.696C1253.5 106.984 1252.88 107.128 1252.12 107.128ZM1262.86 107.128C1261.85 107.128 1261.06 106.872 1260.49 106.36C1259.93 105.837 1259.64 105.064 1259.64 104.04V96.488H1262.14V104.008C1262.14 104.371 1262.24 104.653 1262.43 104.856C1262.62 105.048 1262.88 105.144 1263.21 105.144C1263.61 105.144 1263.94 105.037 1264.22 104.824L1264.89 106.584C1264.64 106.765 1264.33 106.904 1263.96 107C1263.61 107.085 1263.24 107.128 1262.86 107.128ZM1258.32 100.504V98.584H1264.28V100.504H1258.32ZM1266.29 107V98.392H1268.79V107H1266.29ZM1267.54 97.192C1267.08 97.192 1266.71 97.0587 1266.42 96.792C1266.13 96.5253 1265.99 96.1947 1265.99 95.8C1265.99 95.4053 1266.13 95.0747 1266.42 94.808C1266.71 94.5413 1267.08 94.408 1267.54 94.408C1268 94.408 1268.37 94.536 1268.66 94.792C1268.95 95.0373 1269.09 95.3573 1269.09 95.752C1269.09 96.168 1268.95 96.5147 1268.66 96.792C1268.38 97.0587 1268.01 97.192 1267.54 97.192ZM1275.2 107.128C1274.28 107.128 1273.47 106.936 1272.75 106.552C1272.05 106.168 1271.49 105.645 1271.07 104.984C1270.67 104.312 1270.47 103.549 1270.47 102.696C1270.47 101.832 1270.67 101.069 1271.07 100.408C1271.49 99.736 1272.05 99.2133 1272.75 98.84C1273.47 98.456 1274.28 98.264 1275.2 98.264C1276.11 98.264 1276.92 98.456 1277.63 98.84C1278.35 99.2133 1278.91 99.7307 1279.31 100.392C1279.72 101.053 1279.92 101.821 1279.92 102.696C1279.92 103.549 1279.72 104.312 1279.31 104.984C1278.91 105.645 1278.35 106.168 1277.63 106.552C1276.92 106.936 1276.11 107.128 1275.2 107.128ZM1275.2 105.08C1275.62 105.08 1275.99 104.984 1276.32 104.792C1276.65 104.6 1276.91 104.328 1277.11 103.976C1277.3 103.613 1277.39 103.187 1277.39 102.696C1277.39 102.195 1277.3 101.768 1277.11 101.416C1276.91 101.064 1276.65 100.792 1276.32 100.6C1275.99 100.408 1275.62 100.312 1275.2 100.312C1274.79 100.312 1274.41 100.408 1274.08 100.6C1273.75 100.792 1273.48 101.064 1273.28 101.416C1273.09 101.768 1272.99 102.195 1272.99 102.696C1272.99 103.187 1273.09 103.613 1273.28 103.976C1273.48 104.328 1273.75 104.6 1274.08 104.792C1274.41 104.984 1274.79 105.08 1275.2 105.08ZM1286.82 98.264C1287.5 98.264 1288.11 98.4027 1288.65 98.68C1289.19 98.9467 1289.62 99.3627 1289.93 99.928C1290.23 100.483 1290.39 101.197 1290.39 102.072V107H1287.89V102.456C1287.89 101.763 1287.74 101.251 1287.43 100.92C1287.13 100.589 1286.7 100.424 1286.15 100.424C1285.75 100.424 1285.4 100.509 1285.08 100.68C1284.77 100.84 1284.52 101.091 1284.34 101.432C1284.17 101.773 1284.09 102.211 1284.09 102.744V107H1281.59V98.392H1283.97V100.776L1283.53 100.056C1283.83 99.48 1284.28 99.0373 1284.85 98.728C1285.43 98.4187 1286.09 98.264 1286.82 98.264ZM1295.55 107.128C1294.81 107.128 1294.1 107.043 1293.42 106.872C1292.75 106.691 1292.21 106.467 1291.82 106.2L1292.65 104.408C1293.05 104.653 1293.51 104.856 1294.04 105.016C1294.59 105.165 1295.12 105.24 1295.64 105.24C1296.22 105.24 1296.63 105.171 1296.86 105.032C1297.11 104.893 1297.23 104.701 1297.23 104.456C1297.23 104.253 1297.13 104.104 1296.94 104.008C1296.76 103.901 1296.51 103.821 1296.2 103.768C1295.89 103.715 1295.55 103.661 1295.18 103.608C1294.82 103.555 1294.45 103.485 1294.08 103.4C1293.7 103.304 1293.36 103.165 1293.05 102.984C1292.74 102.803 1292.49 102.557 1292.3 102.248C1292.12 101.939 1292.03 101.539 1292.03 101.048C1292.03 100.504 1292.18 100.024 1292.49 99.608C1292.81 99.192 1293.27 98.8667 1293.87 98.632C1294.47 98.3867 1295.18 98.264 1296.01 98.264C1296.6 98.264 1297.2 98.328 1297.8 98.456C1298.41 98.584 1298.92 98.7707 1299.32 99.016L1298.49 100.792C1298.08 100.547 1297.65 100.381 1297.23 100.296C1296.81 100.2 1296.41 100.152 1296.01 100.152C1295.46 100.152 1295.05 100.227 1294.8 100.376C1294.54 100.525 1294.41 100.717 1294.41 100.952C1294.41 101.165 1294.5 101.325 1294.68 101.432C1294.88 101.539 1295.13 101.624 1295.44 101.688C1295.75 101.752 1296.08 101.811 1296.44 101.864C1296.82 101.907 1297.19 101.976 1297.56 102.072C1297.94 102.168 1298.27 102.307 1298.57 102.488C1298.88 102.659 1299.13 102.899 1299.32 103.208C1299.52 103.507 1299.61 103.901 1299.61 104.392C1299.61 104.925 1299.45 105.4 1299.13 105.816C1298.81 106.221 1298.35 106.541 1297.74 106.776C1297.14 107.011 1296.41 107.128 1295.55 107.128Z" fill="white"/>
<path d="M1321 107.128C1320.07 107.128 1319.24 106.941 1318.52 106.568C1317.79 106.184 1317.22 105.656 1316.81 104.984C1316.4 104.312 1316.2 103.549 1316.2 102.696C1316.2 101.832 1316.4 101.069 1316.81 100.408C1317.22 99.736 1317.79 99.2133 1318.52 98.84C1319.24 98.456 1320.07 98.264 1321 98.264C1321.91 98.264 1322.7 98.456 1323.37 98.84C1324.04 99.2133 1324.54 99.752 1324.86 100.456L1322.92 101.496C1322.7 101.091 1322.41 100.792 1322.07 100.6C1321.74 100.408 1321.38 100.312 1320.98 100.312C1320.56 100.312 1320.17 100.408 1319.83 100.6C1319.49 100.792 1319.22 101.064 1319.02 101.416C1318.82 101.768 1318.73 102.195 1318.73 102.696C1318.73 103.197 1318.82 103.624 1319.02 103.976C1319.22 104.328 1319.49 104.6 1319.83 104.792C1320.17 104.984 1320.56 105.08 1320.98 105.08C1321.38 105.08 1321.74 104.989 1322.07 104.808C1322.41 104.616 1322.7 104.312 1322.92 103.896L1324.86 104.952C1324.54 105.645 1324.04 106.184 1323.37 106.568C1322.7 106.941 1321.91 107.128 1321 107.128ZM1330.28 107.128C1329.36 107.128 1328.55 106.936 1327.83 106.552C1327.13 106.168 1326.57 105.645 1326.15 104.984C1325.75 104.312 1325.54 103.549 1325.54 102.696C1325.54 101.832 1325.75 101.069 1326.15 100.408C1326.57 99.736 1327.13 99.2133 1327.83 98.84C1328.55 98.456 1329.36 98.264 1330.28 98.264C1331.19 98.264 1332 98.456 1332.71 98.84C1333.43 99.2133 1333.99 99.7307 1334.39 100.392C1334.8 101.053 1335 101.821 1335 102.696C1335 103.549 1334.8 104.312 1334.39 104.984C1333.99 105.645 1333.43 106.168 1332.71 106.552C1332 106.936 1331.19 107.128 1330.28 107.128ZM1330.28 105.08C1330.7 105.08 1331.07 104.984 1331.4 104.792C1331.73 104.6 1331.99 104.328 1332.18 103.976C1332.38 103.613 1332.47 103.187 1332.47 102.696C1332.47 102.195 1332.38 101.768 1332.18 101.416C1331.99 101.064 1331.73 100.792 1331.4 100.6C1331.07 100.408 1330.7 100.312 1330.28 100.312C1329.86 100.312 1329.49 100.408 1329.16 100.6C1328.83 100.792 1328.56 101.064 1328.36 101.416C1328.17 101.768 1328.07 102.195 1328.07 102.696C1328.07 103.187 1328.17 103.613 1328.36 103.976C1328.56 104.328 1328.83 104.6 1329.16 104.792C1329.49 104.984 1329.86 105.08 1330.28 105.08ZM1341.9 98.264C1342.58 98.264 1343.19 98.4027 1343.72 98.68C1344.27 98.9467 1344.69 99.3627 1345 99.928C1345.31 100.483 1345.47 101.197 1345.47 102.072V107H1342.97V102.456C1342.97 101.763 1342.82 101.251 1342.51 100.92C1342.21 100.589 1341.78 100.424 1341.23 100.424C1340.83 100.424 1340.48 100.509 1340.16 100.68C1339.85 100.84 1339.6 101.091 1339.42 101.432C1339.25 101.773 1339.16 102.211 1339.16 102.744V107H1336.67V98.392H1339.05V100.776L1338.6 100.056C1338.91 99.48 1339.36 99.0373 1339.93 98.728C1340.51 98.4187 1341.16 98.264 1341.9 98.264ZM1351.25 107.128C1350.24 107.128 1349.45 106.872 1348.88 106.36C1348.32 105.837 1348.03 105.064 1348.03 104.04V96.488H1350.53V104.008C1350.53 104.371 1350.63 104.653 1350.82 104.856C1351.01 105.048 1351.27 105.144 1351.6 105.144C1352 105.144 1352.33 105.037 1352.61 104.824L1353.28 106.584C1353.03 106.765 1352.72 106.904 1352.35 107C1352 107.085 1351.63 107.128 1351.25 107.128ZM1346.71 100.504V98.584H1352.67V100.504H1346.71ZM1359.96 107V105.32L1359.8 104.952V101.944C1359.8 101.411 1359.64 100.995 1359.31 100.696C1358.99 100.397 1358.49 100.248 1357.82 100.248C1357.36 100.248 1356.91 100.323 1356.46 100.472C1356.02 100.611 1355.65 100.803 1355.34 101.048L1354.44 99.304C1354.91 98.9733 1355.48 98.7173 1356.14 98.536C1356.8 98.3547 1357.47 98.264 1358.16 98.264C1359.47 98.264 1360.49 98.5733 1361.21 99.192C1361.94 99.8107 1362.3 100.776 1362.3 102.088V107H1359.96ZM1357.34 107.128C1356.67 107.128 1356.09 107.016 1355.61 106.792C1355.13 106.557 1354.76 106.243 1354.51 105.848C1354.25 105.453 1354.12 105.011 1354.12 104.52C1354.12 104.008 1354.25 103.56 1354.49 103.176C1354.75 102.792 1355.15 102.493 1355.69 102.28C1356.24 102.056 1356.94 101.944 1357.82 101.944H1360.11V103.4H1358.09C1357.5 103.4 1357.1 103.496 1356.88 103.688C1356.66 103.88 1356.56 104.12 1356.56 104.408C1356.56 104.728 1356.68 104.984 1356.92 105.176C1357.18 105.357 1357.53 105.448 1357.96 105.448C1358.38 105.448 1358.75 105.352 1359.08 105.16C1359.41 104.957 1359.65 104.664 1359.8 104.28L1360.19 105.432C1360.01 105.987 1359.68 106.408 1359.2 106.696C1358.72 106.984 1358.1 107.128 1357.34 107.128ZM1368.78 107.128C1367.85 107.128 1367.03 106.941 1366.3 106.568C1365.58 106.184 1365 105.656 1364.59 104.984C1364.18 104.312 1363.98 103.549 1363.98 102.696C1363.98 101.832 1364.18 101.069 1364.59 100.408C1365 99.736 1365.58 99.2133 1366.3 98.84C1367.03 98.456 1367.85 98.264 1368.78 98.264C1369.69 98.264 1370.48 98.456 1371.15 98.84C1371.82 99.2133 1372.32 99.752 1372.64 100.456L1370.7 101.496C1370.48 101.091 1370.19 100.792 1369.85 100.6C1369.52 100.408 1369.16 100.312 1368.76 100.312C1368.34 100.312 1367.95 100.408 1367.61 100.6C1367.27 100.792 1367 101.064 1366.8 101.416C1366.6 101.768 1366.51 102.195 1366.51 102.696C1366.51 103.197 1366.6 103.624 1366.8 103.976C1367 104.328 1367.27 104.6 1367.61 104.792C1367.95 104.984 1368.34 105.08 1368.76 105.08C1369.16 105.08 1369.52 104.989 1369.85 104.808C1370.19 104.616 1370.48 104.312 1370.7 103.896L1372.64 104.952C1372.32 105.645 1371.82 106.184 1371.15 106.568C1370.48 106.941 1369.69 107.128 1368.78 107.128ZM1377.72 107.128C1376.71 107.128 1375.92 106.872 1375.35 106.36C1374.79 105.837 1374.5 105.064 1374.5 104.04V96.488H1377V104.008C1377 104.371 1377.09 104.653 1377.29 104.856C1377.48 105.048 1377.74 105.144 1378.07 105.144C1378.47 105.144 1378.8 105.037 1379.08 104.824L1379.75 106.584C1379.49 106.765 1379.19 106.904 1378.82 107C1378.47 107.085 1378.1 107.128 1377.72 107.128ZM1373.17 100.504V98.584H1379.14V100.504H1373.17Z" fill="white"/>
</g>
<defs>
<linearGradient id="paint0_linear_22728_10268" x1="893.823" y1="799.999" x2="640.503" y2="517.696" gradientUnits="userSpaceOnUse">
<stop stop-color="#F0145A"/>
<stop offset="1" stop-color="#693264"/>
</linearGradient>
<clipPath id="clip0_22728_10268">
<rect width="1440" height="800" fill="white"/>
</clipPath>
<clipPath id="clip1_22728_10268">
<rect width="697" height="799" fill="white" transform="translate(372 1)"/>
</clipPath>
<clipPath id="clip2_22728_10268">
<rect width="42" height="42" fill="white" transform="translate(699 728)"/>
</clipPath>
<clipPath id="clip3_22728_10268">
<rect width="130" height="60" fill="white" transform="translate(60 50)"/>
</clipPath>
<clipPath id="clip4_22728_10268">
<rect width="478" height="25" fill="white" transform="translate(902 50)"/>
</clipPath>
<clipPath id="clip5_22728_10268">
<rect width="24" height="24" fill="white" transform="translate(1356 50.5)"/>
</clipPath>
</defs>
</svg>
